  0
SECTION
  2
HEADER
  9
$ANGBASE
  50
0.0
  9
$ANGDIR
  70
1
  9
$MEASUREMENT
  70
1
  0
ENDSEC
  0
SECTION
  2
TABLES
  0
TABLE
  2
LTYPE
  70
4
  0
LTYPE
  5
40F
  2
CONTINUOUS
  70
0
  3
Solid line
  72
65
  73
0
  40
0.0
  0
LTYPE
  5
410
  2
DASHDOT
 70
0
  3
Dash Dot ____ _ ____ _
 72
65
 73
4
 40
2.0
 49
1.25
 49
-0.25
 49
0.25
 49
-0.25
  0
LTYPE
  5
411
  2
DASHED
 70
0
  3
Dashed __ __ __ __ __
 72
65
 73
2
 40
0.75
 49
0.5
 49
-0.25
  0
LTYPE
  5
43B
  2
DOTTED
 70
0
  3
Dotted .  .  .  .
 72
65
 73
2
 40
0.2
 49
0.0
 49
-0.2
  0
ENDTAB
  0
TABLE
  2
STYLE
  70
4
  0
STYLE
  2
KICAD
  70
0
  40
0
  41
1
  42
1
  50
0
  71
0
  3
isocp.shx
  0
STYLE
  2
KICADB
  70
0
  40
0
  41
1
  42
1
  50
0
  71
0
  3
isocp.shx
  0
STYLE
  2
KICADI
  70
0
  40
0
  41
1
  42
1
  50
15
  71
0
  3
isocp.shx
  0
STYLE
  2
KICADBI
  70
0
  40
0
  41
1
  42
1
  50
15
  71
0
  3
isocp.shx
  0
ENDTAB
  0
TABLE
  2
LAYER
  70
1
  0
LAYER
  2
BLACK
  70
0
  62
7
  6
CONTINUOUS
  0
ENDTAB
  0
ENDSEC
  0
SECTION
  2
ENTITIES
0
LINE
8
BLACK
6
CONTINUOUS
10
102.4749999999999943
20
-136.6500000000000057
11
211.4749999999999943
21
-136.6500000000000057
0
LINE
8
BLACK
6
CONTINUOUS
10
102.4749999999999943
20
-58.6499999999999986
11
102.4749999999999943
21
-136.6500000000000057
0
LINE
8
BLACK
6
CONTINUOUS
10
211.4749999999999943
20
-58.6499999999999986
11
102.4749999999999943
21
-58.6499999999999986
0
LINE
8
BLACK
6
CONTINUOUS
10
211.4749999999999943
20
-136.6500000000000057
11
211.4749999999999943
21
-58.6499999999999986
0
LINE
8
BLACK
6
CONTINUOUS
10
106.1397529999999989
20
-79.944153
11
106.1397529999999989
21
-78.3439529999999991
0
LINE
8
BLACK
6
CONTINUOUS
10
106.5207529999999991
20
-77.9629529999999988
11
108.1717529999999954
21
-77.9629529999999988
0
LINE
8
BLACK
6
CONTINUOUS
10
107.8669529999999952
20
-80.6299530000000004
11
106.8255529999999993
21
-80.6299530000000004
0
LINE
8
BLACK
6
CONTINUOUS
10
108.5527529999999956
20
-78.3439529999999991
11
108.5527529999999956
21
-79.944153
0
LINE
8
BLACK
6
CONTINUOUS
10
114.1657529999999952
20
-70.6064470000000028
11
114.1657529999999952
21
-68.9554469999999924
0
LINE
8
BLACK
6
CONTINUOUS
10
114.5467529999999954
20
-68.5744469999999922
11
116.1469529999999963
21
-68.5744469999999922
0
LINE
8
BLACK
6
CONTINUOUS
10
116.1469529999999963
20
-70.9874470000000031
11
114.5467529999999954
21
-70.9874470000000031
0
LINE
8
BLACK
6
CONTINUOUS
10
116.8327529999999967
20
-69.2602469999999926
11
116.8327529999999967
21
-70.3016470000000027
0
ARC
8
BLACK
10
106.5207499999999925
20
-78.3439499999999924
40
0.3809970000118111
50
-270.00045115
51
-179.99954885
0
ARC
8
BLACK
10
106.3874999999999886
20
-80.3821999999999974
40
0.5032531671216784
50
-29.49153157
51
119.49127326
0
ARC
8
BLACK
10
108.3049999999999926
20
-80.3821999999999974
40
0.5032561208947189
50
-299.49186786
51
-150.50813214
0
ARC
8
BLACK
10
108.1717599999999919
20
-78.3439400000000035
40
0.3809870000643066
50
-0.00195501
51
90.00105271
0
ARC
8
BLACK
10
114.5467450000000014
20
-68.9554389999999984
40
0.3809920000839913
50
-270.00120309
51
-179.99879691
0
ARC
8
BLACK
10
114.5467489999999913
20
-70.6064509999999927
40
0.3809960000209976
50
-180.00060154
51
-89.99939846
0
ARC
8
BLACK
10
116.5849999999999937
20
-70.7396940000000001
40
0.5032561208947189
50
-299.49186786
51
-150.50813214
0
ARC
8
BLACK
10
116.5849999999999937
20
-68.8221999999999952
40
0.5032561208947189
50
-209.49186786
51
-60.50813214
0
CIRCLE
8
BLACK
10
208.3332690000000014
20
-132.6295089999999846
40
2.4499999999999997
0
CIRCLE
8
BLACK
10
105.7504289999999969
20
-132.4451229999999953
40
2.4499999999999997
0
CIRCLE
8
BLACK
10
126.2497999999999934
20
-61.9970999999999961
40
2.4499999999999997
0
LINE
8
BLACK
6
CONTINUOUS
10
111.9949999999999903
20
-63.8201999999999998
11
111.9949999999999903
21
-66.2201999999999913
0
LINE
8
BLACK
6
CONTINUOUS
10
111.9949999999999903
20
-63.8201999999999998
11
114.7449999999999903
21
-63.8201999999999998
0
LINE
8
BLACK
6
CONTINUOUS
10
114.7449999999999903
20
-66.2201999999999913
11
111.9949999999999903
21
-66.2201999999999913
0
LINE
8
BLACK
6
CONTINUOUS
10
114.7449999999999903
20
-66.2201999999999913
11
114.7449999999999903
21
-63.8201999999999998
0
LINE
8
BLACK
6
CONTINUOUS
10
109.4549999999999983
20
-63.8201999999999998
11
109.4549999999999983
21
-66.2201999999999913
0
LINE
8
BLACK
6
CONTINUOUS
10
109.4549999999999983
20
-63.8201999999999998
11
112.2049999999999983
21
-63.8201999999999998
0
LINE
8
BLACK
6
CONTINUOUS
10
112.2049999999999983
20
-66.2201999999999913
11
109.4549999999999983
21
-66.2201999999999913
0
LINE
8
BLACK
6
CONTINUOUS
10
112.2049999999999983
20
-66.2201999999999913
11
112.2049999999999983
21
-63.8201999999999998
0
CIRCLE
8
BLACK
10
208.2075289999999939
20
-63.7097249999999988
40
2.4499999999999997
0
LINE
8
BLACK
6
CONTINUOUS
10
175.5657999999999959
20
-82.602099999999993
11
175.5657999999999959
21
-96.602099999999993
0
LINE
8
BLACK
6
CONTINUOUS
10
175.5657999999999959
20
-96.602099999999993
11
189.5657999999999959
21
-96.602099999999993
0
LINE
8
BLACK
6
CONTINUOUS
10
189.5657999999999959
20
-82.602099999999993
11
175.5657999999999959
21
-82.602099999999993
0
LINE
8
BLACK
6
CONTINUOUS
10
189.5657999999999959
20
-96.602099999999993
11
189.5657999999999959
21
-82.602099999999993
0
LINE
8
BLACK
6
CONTINUOUS
10
192.5657999999999959
20
-82.602099999999993
11
192.5657999999999959
21
-96.602099999999993
0
LINE
8
BLACK
6
CONTINUOUS
10
192.5657999999999959
20
-96.602099999999993
11
206.5657999999999959
21
-96.602099999999993
0
LINE
8
BLACK
6
CONTINUOUS
10
206.5657999999999959
20
-82.602099999999993
11
192.5657999999999959
21
-82.602099999999993
0
LINE
8
BLACK
6
CONTINUOUS
10
206.5657999999999959
20
-96.602099999999993
11
206.5657999999999959
21
-82.602099999999993
0
LINE
8
BLACK
6
CONTINUOUS
10
158.5657999999999959
20
-116.602099999999993
11
158.5657999999999959
21
-130.6021000000000072
0
LINE
8
BLACK
6
CONTINUOUS
10
158.5657999999999959
20
-130.6021000000000072
11
172.5657999999999959
21
-130.6021000000000072
0
LINE
8
BLACK
6
CONTINUOUS
10
172.5657999999999959
20
-116.602099999999993
11
158.5657999999999959
21
-116.602099999999993
0
LINE
8
BLACK
6
CONTINUOUS
10
172.5657999999999959
20
-130.6021000000000072
11
172.5657999999999959
21
-116.602099999999993
0
LINE
8
BLACK
6
CONTINUOUS
10
192.5657999999999959
20
-99.602099999999993
11
192.5657999999999959
21
-113.602099999999993
0
LINE
8
BLACK
6
CONTINUOUS
10
192.5657999999999959
20
-113.602099999999993
11
206.5657999999999959
21
-113.602099999999993
0
LINE
8
BLACK
6
CONTINUOUS
10
206.5657999999999959
20
-99.602099999999993
11
192.5657999999999959
21
-99.602099999999993
0
LINE
8
BLACK
6
CONTINUOUS
10
206.5657999999999959
20
-113.602099999999993
11
206.5657999999999959
21
-99.602099999999993
0
LINE
8
BLACK
6
CONTINUOUS
10
124.5657999999999959
20
-65.602099999999993
11
124.5657999999999959
21
-79.602099999999993
0
LINE
8
BLACK
6
CONTINUOUS
10
124.5657999999999959
20
-79.602099999999993
11
138.5657999999999959
21
-79.602099999999993
0
LINE
8
BLACK
6
CONTINUOUS
10
138.5657999999999959
20
-65.602099999999993
11
124.5657999999999959
21
-65.602099999999993
0
LINE
8
BLACK
6
CONTINUOUS
10
138.5657999999999959
20
-79.602099999999993
11
138.5657999999999959
21
-65.602099999999993
0
LINE
8
BLACK
6
CONTINUOUS
10
175.5657999999999959
20
-65.602099999999993
11
175.5657999999999959
21
-79.602099999999993
0
LINE
8
BLACK
6
CONTINUOUS
10
175.5657999999999959
20
-79.602099999999993
11
189.5657999999999959
21
-79.602099999999993
0
LINE
8
BLACK
6
CONTINUOUS
10
189.5657999999999959
20
-65.602099999999993
11
175.5657999999999959
21
-65.602099999999993
0
LINE
8
BLACK
6
CONTINUOUS
10
189.5657999999999959
20
-79.602099999999993
11
189.5657999999999959
21
-65.602099999999993
0
LINE
8
BLACK
6
CONTINUOUS
10
158.5657999999999959
20
-82.602099999999993
11
158.5657999999999959
21
-96.602099999999993
0
LINE
8
BLACK
6
CONTINUOUS
10
158.5657999999999959
20
-96.602099999999993
11
172.5657999999999959
21
-96.602099999999993
0
LINE
8
BLACK
6
CONTINUOUS
10
172.5657999999999959
20
-82.602099999999993
11
158.5657999999999959
21
-82.602099999999993
0
LINE
8
BLACK
6
CONTINUOUS
10
172.5657999999999959
20
-96.602099999999993
11
172.5657999999999959
21
-82.602099999999993
0
LINE
8
BLACK
6
CONTINUOUS
10
158.5657999999999959
20
-65.602099999999993
11
158.5657999999999959
21
-79.602099999999993
0
LINE
8
BLACK
6
CONTINUOUS
10
158.5657999999999959
20
-79.602099999999993
11
172.5657999999999959
21
-79.602099999999993
0
LINE
8
BLACK
6
CONTINUOUS
10
172.5657999999999959
20
-65.602099999999993
11
158.5657999999999959
21
-65.602099999999993
0
LINE
8
BLACK
6
CONTINUOUS
10
172.5657999999999959
20
-79.602099999999993
11
172.5657999999999959
21
-65.602099999999993
0
LINE
8
BLACK
6
CONTINUOUS
10
175.5657999999999959
20
-99.602099999999993
11
175.5657999999999959
21
-113.602099999999993
0
LINE
8
BLACK
6
CONTINUOUS
10
175.5657999999999959
20
-113.602099999999993
11
189.5657999999999959
21
-113.602099999999993
0
LINE
8
BLACK
6
CONTINUOUS
10
189.5657999999999959
20
-99.602099999999993
11
175.5657999999999959
21
-99.602099999999993
0
LINE
8
BLACK
6
CONTINUOUS
10
189.5657999999999959
20
-113.602099999999993
11
189.5657999999999959
21
-99.602099999999993
0
LINE
8
BLACK
6
CONTINUOUS
10
158.5657999999999959
20
-99.602099999999993
11
158.5657999999999959
21
-113.602099999999993
0
LINE
8
BLACK
6
CONTINUOUS
10
158.5657999999999959
20
-113.602099999999993
11
172.5657999999999959
21
-113.602099999999993
0
LINE
8
BLACK
6
CONTINUOUS
10
172.5657999999999959
20
-99.602099999999993
11
158.5657999999999959
21
-99.602099999999993
0
LINE
8
BLACK
6
CONTINUOUS
10
172.5657999999999959
20
-113.602099999999993
11
172.5657999999999959
21
-99.602099999999993
0
LINE
8
BLACK
6
CONTINUOUS
10
141.5657999999999959
20
-65.602099999999993
11
141.5657999999999959
21
-79.602099999999993
0
LINE
8
BLACK
6
CONTINUOUS
10
141.5657999999999959
20
-79.602099999999993
11
155.5657999999999959
21
-79.602099999999993
0
LINE
8
BLACK
6
CONTINUOUS
10
155.5657999999999959
20
-65.602099999999993
11
141.5657999999999959
21
-65.602099999999993
0
LINE
8
BLACK
6
CONTINUOUS
10
155.5657999999999959
20
-79.602099999999993
11
155.5657999999999959
21
-65.602099999999993
0
LINE
8
BLACK
6
CONTINUOUS
10
124.5657999999999959
20
-116.602099999999993
11
124.5657999999999959
21
-130.6021000000000072
0
LINE
8
BLACK
6
CONTINUOUS
10
124.5657999999999959
20
-130.6021000000000072
11
138.5657999999999959
21
-130.6021000000000072
0
LINE
8
BLACK
6
CONTINUOUS
10
138.5657999999999959
20
-116.602099999999993
11
124.5657999999999959
21
-116.602099999999993
0
LINE
8
BLACK
6
CONTINUOUS
10
138.5657999999999959
20
-130.6021000000000072
11
138.5657999999999959
21
-116.602099999999993
0
LINE
8
BLACK
6
CONTINUOUS
10
192.5657999999999959
20
-65.602099999999993
11
192.5657999999999959
21
-79.602099999999993
0
LINE
8
BLACK
6
CONTINUOUS
10
192.5657999999999959
20
-79.602099999999993
11
206.5657999999999959
21
-79.602099999999993
0
LINE
8
BLACK
6
CONTINUOUS
10
206.5657999999999959
20
-65.602099999999993
11
192.5657999999999959
21
-65.602099999999993
0
LINE
8
BLACK
6
CONTINUOUS
10
206.5657999999999959
20
-79.602099999999993
11
206.5657999999999959
21
-65.602099999999993
0
LINE
8
BLACK
6
CONTINUOUS
10
107.5657999999999959
20
-116.602099999999993
11
107.5657999999999959
21
-130.6021000000000072
0
LINE
8
BLACK
6
CONTINUOUS
10
107.5657999999999959
20
-130.6021000000000072
11
121.5657999999999959
21
-130.6021000000000072
0
LINE
8
BLACK
6
CONTINUOUS
10
121.5657999999999959
20
-116.602099999999993
11
107.5657999999999959
21
-116.602099999999993
0
LINE
8
BLACK
6
CONTINUOUS
10
121.5657999999999959
20
-130.6021000000000072
11
121.5657999999999959
21
-116.602099999999993
0
LINE
8
BLACK
6
CONTINUOUS
10
141.5657999999999959
20
-82.602099999999993
11
141.5657999999999959
21
-96.602099999999993
0
LINE
8
BLACK
6
CONTINUOUS
10
141.5657999999999959
20
-96.602099999999993
11
155.5657999999999959
21
-96.602099999999993
0
LINE
8
BLACK
6
CONTINUOUS
10
155.5657999999999959
20
-82.602099999999993
11
141.5657999999999959
21
-82.602099999999993
0
LINE
8
BLACK
6
CONTINUOUS
10
155.5657999999999959
20
-96.602099999999993
11
155.5657999999999959
21
-82.602099999999993
0
LINE
8
BLACK
6
CONTINUOUS
10
107.5657999999999959
20
-99.602099999999993
11
107.5657999999999959
21
-113.602099999999993
0
LINE
8
BLACK
6
CONTINUOUS
10
107.5657999999999959
20
-113.602099999999993
11
121.5657999999999959
21
-113.602099999999993
0
LINE
8
BLACK
6
CONTINUOUS
10
121.5657999999999959
20
-99.602099999999993
11
107.5657999999999959
21
-99.602099999999993
0
LINE
8
BLACK
6
CONTINUOUS
10
121.5657999999999959
20
-113.602099999999993
11
121.5657999999999959
21
-99.602099999999993
0
LINE
8
BLACK
6
CONTINUOUS
10
124.5657999999999959
20
-99.602099999999993
11
124.5657999999999959
21
-113.602099999999993
0
LINE
8
BLACK
6
CONTINUOUS
10
124.5657999999999959
20
-113.602099999999993
11
138.5657999999999959
21
-113.602099999999993
0
LINE
8
BLACK
6
CONTINUOUS
10
138.5657999999999959
20
-99.602099999999993
11
124.5657999999999959
21
-99.602099999999993
0
LINE
8
BLACK
6
CONTINUOUS
10
138.5657999999999959
20
-113.602099999999993
11
138.5657999999999959
21
-99.602099999999993
0
LINE
8
BLACK
6
CONTINUOUS
10
124.5657999999999959
20
-82.602099999999993
11
124.5657999999999959
21
-96.602099999999993
0
LINE
8
BLACK
6
CONTINUOUS
10
124.5657999999999959
20
-96.602099999999993
11
138.5657999999999959
21
-96.602099999999993
0
LINE
8
BLACK
6
CONTINUOUS
10
138.5657999999999959
20
-82.602099999999993
11
124.5657999999999959
21
-82.602099999999993
0
LINE
8
BLACK
6
CONTINUOUS
10
138.5657999999999959
20
-96.602099999999993
11
138.5657999999999959
21
-82.602099999999993
0
LINE
8
BLACK
6
CONTINUOUS
10
175.5657999999999959
20
-116.602099999999993
11
175.5657999999999959
21
-130.6021000000000072
0
LINE
8
BLACK
6
CONTINUOUS
10
175.5657999999999959
20
-130.6021000000000072
11
189.5657999999999959
21
-130.6021000000000072
0
LINE
8
BLACK
6
CONTINUOUS
10
189.5657999999999959
20
-116.602099999999993
11
175.5657999999999959
21
-116.602099999999993
0
LINE
8
BLACK
6
CONTINUOUS
10
189.5657999999999959
20
-130.6021000000000072
11
189.5657999999999959
21
-116.602099999999993
0
LINE
8
BLACK
6
CONTINUOUS
10
141.5657999999999959
20
-116.602099999999993
11
141.5657999999999959
21
-130.6021000000000072
0
LINE
8
BLACK
6
CONTINUOUS
10
141.5657999999999959
20
-130.6021000000000072
11
155.5657999999999959
21
-130.6021000000000072
0
LINE
8
BLACK
6
CONTINUOUS
10
155.5657999999999959
20
-116.602099999999993
11
141.5657999999999959
21
-116.602099999999993
0
LINE
8
BLACK
6
CONTINUOUS
10
155.5657999999999959
20
-130.6021000000000072
11
155.5657999999999959
21
-116.602099999999993
0
LINE
8
BLACK
6
CONTINUOUS
10
141.5657999999999959
20
-99.602099999999993
11
141.5657999999999959
21
-113.602099999999993
0
LINE
8
BLACK
6
CONTINUOUS
10
141.5657999999999959
20
-113.602099999999993
11
155.5657999999999959
21
-113.602099999999993
0
LINE
8
BLACK
6
CONTINUOUS
10
155.5657999999999959
20
-99.602099999999993
11
141.5657999999999959
21
-99.602099999999993
0
LINE
8
BLACK
6
CONTINUOUS
10
155.5657999999999959
20
-113.602099999999993
11
155.5657999999999959
21
-99.602099999999993
0
LINE
8
BLACK
6
CONTINUOUS
10
192.5657999999999959
20
-116.602099999999993
11
192.5657999999999959
21
-130.6021000000000072
0
LINE
8
BLACK
6
CONTINUOUS
10
192.5657999999999959
20
-130.6021000000000072
11
206.5657999999999959
21
-130.6021000000000072
0
LINE
8
BLACK
6
CONTINUOUS
10
206.5657999999999959
20
-116.602099999999993
11
192.5657999999999959
21
-116.602099999999993
0
LINE
8
BLACK
6
CONTINUOUS
10
206.5657999999999959
20
-130.6021000000000072
11
206.5657999999999959
21
-116.602099999999993
0
LINE
8
BLACK
6
CONTINUOUS
10
103.9904189999999886
20
-88.643298999999999
11
102.9904189999999886
21
-88.643298999999999
0
LINE
8
BLACK
6
CONTINUOUS
10
102.9904189999999886
20
-88.643298999999999
11
103.7047039999999924
21
-88.9432989999999961
0
LINE
8
BLACK
6
CONTINUOUS
10
103.7047039999999924
20
-88.9432989999999961
11
102.9904189999999886
21
-89.2432989999999933
0
LINE
8
BLACK
6
CONTINUOUS
10
102.9904189999999886
20
-89.2432989999999933
11
103.9904189999999886
21
-89.2432989999999933
0
LINE
8
BLACK
6
CONTINUOUS
10
103.9427999999999912
20
-89.6290130000000005
11
103.9904189999999886
21
-89.7575849999999917
0
LINE
8
BLACK
6
CONTINUOUS
10
103.9904189999999886
20
-89.7575849999999917
11
103.9904189999999886
21
-89.9718699999999956
0
LINE
8
BLACK
6
CONTINUOUS
10
103.9904189999999886
20
-89.9718699999999956
11
103.9427999999999912
21
-90.0575849999999889
0
LINE
8
BLACK
6
CONTINUOUS
10
103.9427999999999912
20
-90.0575849999999889
11
103.8951799999999963
21
-90.100442000000001
0
LINE
8
BLACK
6
CONTINUOUS
10
103.8951799999999963
20
-90.100442000000001
11
103.7999420000000015
21
-90.143298999999999
0
LINE
8
BLACK
6
CONTINUOUS
10
103.7999420000000015
20
-90.143298999999999
11
103.7047039999999924
21
-90.143298999999999
0
LINE
8
BLACK
6
CONTINUOUS
10
103.7047039999999924
20
-90.143298999999999
11
103.6094659999999976
21
-90.100442000000001
0
LINE
8
BLACK
6
CONTINUOUS
10
103.6094659999999976
20
-90.100442000000001
11
103.5618470000000002
21
-90.0575849999999889
0
LINE
8
BLACK
6
CONTINUOUS
10
103.5618470000000002
20
-90.0575849999999889
11
103.5142279999999886
21
-89.9718699999999956
0
LINE
8
BLACK
6
CONTINUOUS
10
103.5142279999999886
20
-89.9718699999999956
11
103.4666089999999912
21
-89.8004419999999897
0
LINE
8
BLACK
6
CONTINUOUS
10
103.4666089999999912
20
-89.8004419999999897
11
103.4189899999999938
21
-89.7147269999999963
0
LINE
8
BLACK
6
CONTINUOUS
10
103.4189899999999938
20
-89.7147269999999963
11
103.3713709999999963
21
-89.6718699999999984
0
LINE
8
BLACK
6
CONTINUOUS
10
103.3713709999999963
20
-89.6718699999999984
11
103.2761330000000015
21
-89.6290130000000005
0
LINE
8
BLACK
6
CONTINUOUS
10
103.2761330000000015
20
-89.6290130000000005
11
103.1808949999999925
21
-89.6290130000000005
0
LINE
8
BLACK
6
CONTINUOUS
10
103.1808949999999925
20
-89.6290130000000005
11
103.0856569999999977
21
-89.6718699999999984
0
LINE
8
BLACK
6
CONTINUOUS
10
103.0856569999999977
20
-89.6718699999999984
11
103.0380380000000002
21
-89.7147269999999963
0
LINE
8
BLACK
6
CONTINUOUS
10
103.0380380000000002
20
-89.7147269999999963
11
102.9904189999999886
21
-89.8004419999999897
0
LINE
8
BLACK
6
CONTINUOUS
10
102.9904189999999886
20
-89.8004419999999897
11
102.9904189999999886
21
-90.0147269999999935
0
LINE
8
BLACK
6
CONTINUOUS
10
102.9904189999999886
20
-90.0147269999999935
11
103.0380380000000002
21
-90.143298999999999
0
LINE
8
BLACK
6
CONTINUOUS
10
103.9904189999999886
20
-90.529012999999992
11
102.9904189999999886
21
-90.529012999999992
0
LINE
8
BLACK
6
CONTINUOUS
10
103.9904189999999886
20
-91.0432989999999904
11
103.4189899999999938
21
-90.6575849999999974
0
LINE
8
BLACK
6
CONTINUOUS
10
102.9904189999999886
20
-91.0432989999999904
11
103.5618470000000002
21
-90.529012999999992
0
LINE
8
BLACK
6
CONTINUOUS
10
103.6094659999999976
20
-91.4290129999999976
11
103.6094659999999976
21
-92.1147279999999995
0
LINE
8
BLACK
6
CONTINUOUS
10
103.9904189999999886
20
-93.014727999999991
11
103.9904189999999886
21
-92.5004419999999925
0
LINE
8
BLACK
6
CONTINUOUS
10
103.9904189999999886
20
-92.7575849999999917
11
102.9904189999999886
21
-92.7575849999999917
0
LINE
8
BLACK
6
CONTINUOUS
10
102.9904189999999886
20
-92.7575849999999917
11
103.1332759999999951
21
-92.6718709999999959
0
LINE
8
BLACK
6
CONTINUOUS
10
103.1332759999999951
20
-92.6718709999999959
11
103.2285139999999899
21
-92.5861560000000026
0
LINE
8
BLACK
6
CONTINUOUS
10
103.2285139999999899
20
-92.5861560000000026
11
103.2761330000000015
21
-92.5004419999999925
0
LINE
8
BLACK
6
CONTINUOUS
10
103.0856569999999977
20
-93.3575850000000003
11
103.0380380000000002
21
-93.4004419999999982
0
LINE
8
BLACK
6
CONTINUOUS
10
103.0380380000000002
20
-93.4004419999999982
11
102.9904189999999886
21
-93.4861569999999915
0
LINE
8
BLACK
6
CONTINUOUS
10
102.9904189999999886
20
-93.4861569999999915
11
102.9904189999999886
21
-93.7004419999999953
0
LINE
8
BLACK
6
CONTINUOUS
10
102.9904189999999886
20
-93.7004419999999953
11
103.0380380000000002
21
-93.7861569999999887
0
LINE
8
BLACK
6
CONTINUOUS
10
103.0380380000000002
20
-93.7861569999999887
11
103.0856569999999977
21
-93.8290140000000008
0
LINE
8
BLACK
6
CONTINUOUS
10
103.0856569999999977
20
-93.8290140000000008
11
103.1808949999999925
21
-93.8718709999999987
0
LINE
8
BLACK
6
CONTINUOUS
10
103.1808949999999925
20
-93.8718709999999987
11
103.2761330000000015
21
-93.8718709999999987
0
LINE
8
BLACK
6
CONTINUOUS
10
103.2761330000000015
20
-93.8718709999999987
11
103.4189899999999938
21
-93.8290140000000008
0
LINE
8
BLACK
6
CONTINUOUS
10
103.4189899999999938
20
-93.8290140000000008
11
103.9904189999999886
21
-93.3147280000000023
0
LINE
8
BLACK
6
CONTINUOUS
10
103.9904189999999886
20
-93.3147280000000023
11
103.9904189999999886
21
-93.8718709999999987
0
LINE
8
BLACK
6
CONTINUOUS
10
103.9904189999999886
20
-94.2575849999999917
11
102.9904189999999886
21
-94.2575849999999917
0
LINE
8
BLACK
6
CONTINUOUS
10
102.9904189999999886
20
-94.2575849999999917
11
102.9904189999999886
21
-94.471870999999993
0
LINE
8
BLACK
6
CONTINUOUS
10
102.9904189999999886
20
-94.471870999999993
11
103.0380380000000002
21
-94.600442000000001
0
LINE
8
BLACK
6
CONTINUOUS
10
103.0380380000000002
20
-94.600442000000001
11
103.1332759999999951
21
-94.6861569999999944
0
LINE
8
BLACK
6
CONTINUOUS
10
103.1332759999999951
20
-94.6861569999999944
11
103.2285139999999899
21
-94.7290139999999923
0
LINE
8
BLACK
6
CONTINUOUS
10
103.2285139999999899
20
-94.7290139999999923
11
103.4189899999999938
21
-94.7718709999999902
0
LINE
8
BLACK
6
CONTINUOUS
10
103.4189899999999938
20
-94.7718709999999902
11
103.5618470000000002
21
-94.7718709999999902
0
LINE
8
BLACK
6
CONTINUOUS
10
103.5618470000000002
20
-94.7718709999999902
11
103.7523229999999899
21
-94.7290139999999923
0
LINE
8
BLACK
6
CONTINUOUS
10
103.7523229999999899
20
-94.7290139999999923
11
103.8475609999999989
21
-94.6861569999999944
0
LINE
8
BLACK
6
CONTINUOUS
10
103.8475609999999989
20
-94.6861569999999944
11
103.9427999999999912
21
-94.600442000000001
0
LINE
8
BLACK
6
CONTINUOUS
10
103.9427999999999912
20
-94.600442000000001
11
103.9904189999999886
21
-94.471870999999993
0
LINE
8
BLACK
6
CONTINUOUS
10
103.9904189999999886
20
-94.471870999999993
11
103.9904189999999886
21
-94.2575849999999917
0
LINE
8
BLACK
6
CONTINUOUS
10
103.9904189999999886
20
-95.629013999999998
11
103.9904189999999886
21
-95.1147279999999995
0
LINE
8
BLACK
6
CONTINUOUS
10
103.9904189999999886
20
-95.3718709999999987
11
102.9904189999999886
21
-95.3718709999999987
0
LINE
8
BLACK
6
CONTINUOUS
10
102.9904189999999886
20
-95.3718709999999987
11
103.1332759999999951
21
-95.2861569999999887
0
LINE
8
BLACK
6
CONTINUOUS
10
103.1332759999999951
20
-95.2861569999999887
11
103.2285139999999899
21
-95.2004419999999953
0
LINE
8
BLACK
6
CONTINUOUS
10
103.2285139999999899
20
-95.2004419999999953
11
103.2761330000000015
21
-95.1147279999999995
0
LINE
8
BLACK
6
CONTINUOUS
10
103.9904189999999886
20
-96.0575849999999889
11
103.9904189999999886
21
-96.2290139999999923
0
LINE
8
BLACK
6
CONTINUOUS
10
103.9904189999999886
20
-96.2290139999999923
11
103.9427999999999912
21
-96.3147280000000023
0
LINE
8
BLACK
6
CONTINUOUS
10
103.9427999999999912
20
-96.3147280000000023
11
103.8951799999999963
21
-96.3575850000000003
0
LINE
8
BLACK
6
CONTINUOUS
10
103.8951799999999963
20
-96.3575850000000003
11
103.7523229999999899
21
-96.4432999999999936
0
LINE
8
BLACK
6
CONTINUOUS
10
103.7523229999999899
20
-96.4432999999999936
11
103.5618470000000002
21
-96.4861569999999915
0
LINE
8
BLACK
6
CONTINUOUS
10
103.5618470000000002
20
-96.4861569999999915
11
103.1808949999999925
21
-96.4861569999999915
0
LINE
8
BLACK
6
CONTINUOUS
10
103.1808949999999925
20
-96.4861569999999915
11
103.0856569999999977
21
-96.4432999999999936
0
LINE
8
BLACK
6
CONTINUOUS
10
103.0856569999999977
20
-96.4432999999999936
11
103.0380380000000002
21
-96.4004429999999957
0
LINE
8
BLACK
6
CONTINUOUS
10
103.0380380000000002
20
-96.4004429999999957
11
102.9904189999999886
21
-96.3147280000000023
0
LINE
8
BLACK
6
CONTINUOUS
10
102.9904189999999886
20
-96.3147280000000023
11
102.9904189999999886
21
-96.1432999999999964
0
LINE
8
BLACK
6
CONTINUOUS
10
102.9904189999999886
20
-96.1432999999999964
11
103.0380380000000002
21
-96.0575849999999889
0
LINE
8
BLACK
6
CONTINUOUS
10
103.0380380000000002
20
-96.0575849999999889
11
103.0856569999999977
21
-96.014727999999991
0
LINE
8
BLACK
6
CONTINUOUS
10
103.0856569999999977
20
-96.014727999999991
11
103.1808949999999925
21
-95.971870999999993
0
LINE
8
BLACK
6
CONTINUOUS
10
103.1808949999999925
20
-95.971870999999993
11
103.4189899999999938
21
-95.971870999999993
0
LINE
8
BLACK
6
CONTINUOUS
10
103.4189899999999938
20
-95.971870999999993
11
103.5142279999999886
21
-96.014727999999991
0
LINE
8
BLACK
6
CONTINUOUS
10
103.5142279999999886
20
-96.014727999999991
11
103.5618470000000002
21
-96.0575849999999889
0
LINE
8
BLACK
6
CONTINUOUS
10
103.5618470000000002
20
-96.0575849999999889
11
103.6094659999999976
21
-96.1432999999999964
0
LINE
8
BLACK
6
CONTINUOUS
10
103.6094659999999976
20
-96.1432999999999964
11
103.6094659999999976
21
-96.3147280000000023
0
LINE
8
BLACK
6
CONTINUOUS
10
103.6094659999999976
20
-96.3147280000000023
11
103.5618470000000002
21
-96.4004429999999957
0
LINE
8
BLACK
6
CONTINUOUS
10
103.5618470000000002
20
-96.4004429999999957
11
103.5142279999999886
21
-96.4432999999999936
0
LINE
8
BLACK
6
CONTINUOUS
10
103.5142279999999886
20
-96.4432999999999936
11
103.4189899999999938
21
-96.4861569999999915
0
LINE
8
BLACK
6
CONTINUOUS
10
173.0407999999999902
20
-80.0771000000000015
11
173.0407999999999902
21
-99.1270999999999987
0
LINE
8
BLACK
6
CONTINUOUS
10
173.0407999999999902
20
-99.1270999999999987
11
192.0908000000000015
21
-99.1270999999999987
0
LINE
8
BLACK
6
CONTINUOUS
10
192.0908000000000015
20
-80.0771000000000015
11
173.0407999999999902
21
-80.0771000000000015
0
LINE
8
BLACK
6
CONTINUOUS
10
192.0908000000000015
20
-99.1270999999999987
11
192.0908000000000015
21
-80.0771000000000015
0
LINE
8
BLACK
6
CONTINUOUS
10
190.0407999999999902
20
-80.0771000000000015
11
190.0407999999999902
21
-99.1270999999999987
0
LINE
8
BLACK
6
CONTINUOUS
10
190.0407999999999902
20
-99.1270999999999987
11
209.0908000000000015
21
-99.1270999999999987
0
LINE
8
BLACK
6
CONTINUOUS
10
209.0908000000000015
20
-80.0771000000000015
11
190.0407999999999902
21
-80.0771000000000015
0
LINE
8
BLACK
6
CONTINUOUS
10
209.0908000000000015
20
-99.1270999999999987
11
209.0908000000000015
21
-80.0771000000000015
0
LINE
8
BLACK
6
CONTINUOUS
10
156.0407999999999902
20
-114.0771000000000015
11
156.0407999999999902
21
-133.1270999999999844
0
LINE
8
BLACK
6
CONTINUOUS
10
156.0407999999999902
20
-133.1270999999999844
11
175.0908000000000015
21
-133.1270999999999844
0
LINE
8
BLACK
6
CONTINUOUS
10
175.0908000000000015
20
-114.0771000000000015
11
156.0407999999999902
21
-114.0771000000000015
0
LINE
8
BLACK
6
CONTINUOUS
10
175.0908000000000015
20
-133.1270999999999844
11
175.0908000000000015
21
-114.0771000000000015
0
LINE
8
BLACK
6
CONTINUOUS
10
190.0407999999999902
20
-97.0771000000000015
11
190.0407999999999902
21
-116.1270999999999987
0
LINE
8
BLACK
6
CONTINUOUS
10
190.0407999999999902
20
-116.1270999999999987
11
209.0908000000000015
21
-116.1270999999999987
0
LINE
8
BLACK
6
CONTINUOUS
10
209.0908000000000015
20
-97.0771000000000015
11
190.0407999999999902
21
-97.0771000000000015
0
LINE
8
BLACK
6
CONTINUOUS
10
209.0908000000000015
20
-116.1270999999999987
11
209.0908000000000015
21
-97.0771000000000015
0
LINE
8
BLACK
6
CONTINUOUS
10
122.0407999999999902
20
-63.0770999999999944
11
122.0407999999999902
21
-82.1270999999999987
0
LINE
8
BLACK
6
CONTINUOUS
10
122.0407999999999902
20
-82.1270999999999987
11
141.0908000000000015
21
-82.1270999999999987
0
LINE
8
BLACK
6
CONTINUOUS
10
141.0908000000000015
20
-63.0770999999999944
11
122.0407999999999902
21
-63.0770999999999944
0
LINE
8
BLACK
6
CONTINUOUS
10
141.0908000000000015
20
-82.1270999999999987
11
141.0908000000000015
21
-63.0770999999999944
0
LINE
8
BLACK
6
CONTINUOUS
10
173.0407999999999902
20
-63.0770999999999944
11
173.0407999999999902
21
-82.1270999999999987
0
LINE
8
BLACK
6
CONTINUOUS
10
173.0407999999999902
20
-82.1270999999999987
11
192.0908000000000015
21
-82.1270999999999987
0
LINE
8
BLACK
6
CONTINUOUS
10
192.0908000000000015
20
-63.0770999999999944
11
173.0407999999999902
21
-63.0770999999999944
0
LINE
8
BLACK
6
CONTINUOUS
10
192.0908000000000015
20
-82.1270999999999987
11
192.0908000000000015
21
-63.0770999999999944
0
LINE
8
BLACK
6
CONTINUOUS
10
156.0407999999999902
20
-80.0771000000000015
11
156.0407999999999902
21
-99.1270999999999987
0
LINE
8
BLACK
6
CONTINUOUS
10
156.0407999999999902
20
-99.1270999999999987
11
175.0908000000000015
21
-99.1270999999999987
0
LINE
8
BLACK
6
CONTINUOUS
10
175.0908000000000015
20
-80.0771000000000015
11
156.0407999999999902
21
-80.0771000000000015
0
LINE
8
BLACK
6
CONTINUOUS
10
175.0908000000000015
20
-99.1270999999999987
11
175.0908000000000015
21
-80.0771000000000015
0
LINE
8
BLACK
6
CONTINUOUS
10
156.0407999999999902
20
-63.0770999999999944
11
156.0407999999999902
21
-82.1270999999999987
0
LINE
8
BLACK
6
CONTINUOUS
10
156.0407999999999902
20
-82.1270999999999987
11
175.0908000000000015
21
-82.1270999999999987
0
LINE
8
BLACK
6
CONTINUOUS
10
175.0908000000000015
20
-63.0770999999999944
11
156.0407999999999902
21
-63.0770999999999944
0
LINE
8
BLACK
6
CONTINUOUS
10
175.0908000000000015
20
-82.1270999999999987
11
175.0908000000000015
21
-63.0770999999999944
0
LINE
8
BLACK
6
CONTINUOUS
10
173.0407999999999902
20
-97.0771000000000015
11
173.0407999999999902
21
-116.1270999999999987
0
LINE
8
BLACK
6
CONTINUOUS
10
173.0407999999999902
20
-116.1270999999999987
11
192.0908000000000015
21
-116.1270999999999987
0
LINE
8
BLACK
6
CONTINUOUS
10
192.0908000000000015
20
-97.0771000000000015
11
173.0407999999999902
21
-97.0771000000000015
0
LINE
8
BLACK
6
CONTINUOUS
10
192.0908000000000015
20
-116.1270999999999987
11
192.0908000000000015
21
-97.0771000000000015
0
LINE
8
BLACK
6
CONTINUOUS
10
156.0407999999999902
20
-97.0771000000000015
11
156.0407999999999902
21
-116.1270999999999987
0
LINE
8
BLACK
6
CONTINUOUS
10
156.0407999999999902
20
-116.1270999999999987
11
175.0908000000000015
21
-116.1270999999999987
0
LINE
8
BLACK
6
CONTINUOUS
10
175.0908000000000015
20
-97.0771000000000015
11
156.0407999999999902
21
-97.0771000000000015
0
LINE
8
BLACK
6
CONTINUOUS
10
175.0908000000000015
20
-116.1270999999999987
11
175.0908000000000015
21
-97.0771000000000015
0
LINE
8
BLACK
6
CONTINUOUS
10
139.0407999999999902
20
-63.0770999999999944
11
139.0407999999999902
21
-82.1270999999999987
0
LINE
8
BLACK
6
CONTINUOUS
10
139.0407999999999902
20
-82.1270999999999987
11
158.0908000000000015
21
-82.1270999999999987
0
LINE
8
BLACK
6
CONTINUOUS
10
158.0908000000000015
20
-63.0770999999999944
11
139.0407999999999902
21
-63.0770999999999944
0
LINE
8
BLACK
6
CONTINUOUS
10
158.0908000000000015
20
-82.1270999999999987
11
158.0908000000000015
21
-63.0770999999999944
0
LINE
8
BLACK
6
CONTINUOUS
10
122.0407999999999902
20
-114.0771000000000015
11
122.0407999999999902
21
-133.1270999999999844
0
LINE
8
BLACK
6
CONTINUOUS
10
122.0407999999999902
20
-133.1270999999999844
11
141.0908000000000015
21
-133.1270999999999844
0
LINE
8
BLACK
6
CONTINUOUS
10
141.0908000000000015
20
-114.0771000000000015
11
122.0407999999999902
21
-114.0771000000000015
0
LINE
8
BLACK
6
CONTINUOUS
10
141.0908000000000015
20
-133.1270999999999844
11
141.0908000000000015
21
-114.0771000000000015
0
LINE
8
BLACK
6
CONTINUOUS
10
190.0407999999999902
20
-63.0770999999999944
11
190.0407999999999902
21
-82.1270999999999987
0
LINE
8
BLACK
6
CONTINUOUS
10
190.0407999999999902
20
-82.1270999999999987
11
209.0908000000000015
21
-82.1270999999999987
0
LINE
8
BLACK
6
CONTINUOUS
10
209.0908000000000015
20
-63.0770999999999944
11
190.0407999999999902
21
-63.0770999999999944
0
LINE
8
BLACK
6
CONTINUOUS
10
209.0908000000000015
20
-82.1270999999999987
11
209.0908000000000015
21
-63.0770999999999944
0
LINE
8
BLACK
6
CONTINUOUS
10
105.0407999999999902
20
-114.0771000000000015
11
105.0407999999999902
21
-133.1270999999999844
0
LINE
8
BLACK
6
CONTINUOUS
10
105.0407999999999902
20
-133.1270999999999844
11
124.0907999999999873
21
-133.1270999999999844
0
LINE
8
BLACK
6
CONTINUOUS
10
124.0907999999999873
20
-114.0771000000000015
11
105.0407999999999902
21
-114.0771000000000015
0
LINE
8
BLACK
6
CONTINUOUS
10
124.0907999999999873
20
-133.1270999999999844
11
124.0907999999999873
21
-114.0771000000000015
0
LINE
8
BLACK
6
CONTINUOUS
10
139.0407999999999902
20
-80.0771000000000015
11
139.0407999999999902
21
-99.1270999999999987
0
LINE
8
BLACK
6
CONTINUOUS
10
139.0407999999999902
20
-99.1270999999999987
11
158.0908000000000015
21
-99.1270999999999987
0
LINE
8
BLACK
6
CONTINUOUS
10
158.0908000000000015
20
-80.0771000000000015
11
139.0407999999999902
21
-80.0771000000000015
0
LINE
8
BLACK
6
CONTINUOUS
10
158.0908000000000015
20
-99.1270999999999987
11
158.0908000000000015
21
-80.0771000000000015
0
LINE
8
BLACK
6
CONTINUOUS
10
105.0407999999999902
20
-97.0771000000000015
11
105.0407999999999902
21
-116.1270999999999987
0
LINE
8
BLACK
6
CONTINUOUS
10
105.0407999999999902
20
-116.1270999999999987
11
124.0907999999999873
21
-116.1270999999999987
0
LINE
8
BLACK
6
CONTINUOUS
10
124.0907999999999873
20
-97.0771000000000015
11
105.0407999999999902
21
-97.0771000000000015
0
LINE
8
BLACK
6
CONTINUOUS
10
124.0907999999999873
20
-116.1270999999999987
11
124.0907999999999873
21
-97.0771000000000015
0
LINE
8
BLACK
6
CONTINUOUS
10
122.0407999999999902
20
-97.0771000000000015
11
122.0407999999999902
21
-116.1270999999999987
0
LINE
8
BLACK
6
CONTINUOUS
10
122.0407999999999902
20
-116.1270999999999987
11
141.0908000000000015
21
-116.1270999999999987
0
LINE
8
BLACK
6
CONTINUOUS
10
141.0908000000000015
20
-97.0771000000000015
11
122.0407999999999902
21
-97.0771000000000015
0
LINE
8
BLACK
6
CONTINUOUS
10
141.0908000000000015
20
-116.1270999999999987
11
141.0908000000000015
21
-97.0771000000000015
0
LINE
8
BLACK
6
CONTINUOUS
10
122.0407999999999902
20
-80.0771000000000015
11
122.0407999999999902
21
-99.1270999999999987
0
LINE
8
BLACK
6
CONTINUOUS
10
122.0407999999999902
20
-99.1270999999999987
11
141.0908000000000015
21
-99.1270999999999987
0
LINE
8
BLACK
6
CONTINUOUS
10
141.0908000000000015
20
-80.0771000000000015
11
122.0407999999999902
21
-80.0771000000000015
0
LINE
8
BLACK
6
CONTINUOUS
10
141.0908000000000015
20
-99.1270999999999987
11
141.0908000000000015
21
-80.0771000000000015
0
LINE
8
BLACK
6
CONTINUOUS
10
173.0407999999999902
20
-114.0771000000000015
11
173.0407999999999902
21
-133.1270999999999844
0
LINE
8
BLACK
6
CONTINUOUS
10
173.0407999999999902
20
-133.1270999999999844
11
192.0908000000000015
21
-133.1270999999999844
0
LINE
8
BLACK
6
CONTINUOUS
10
192.0908000000000015
20
-114.0771000000000015
11
173.0407999999999902
21
-114.0771000000000015
0
LINE
8
BLACK
6
CONTINUOUS
10
192.0908000000000015
20
-133.1270999999999844
11
192.0908000000000015
21
-114.0771000000000015
0
LINE
8
BLACK
6
CONTINUOUS
10
102.5356000000000023
20
-88.0433000000000021
11
106.0356000000000023
21
-88.0433000000000021
0
LINE
8
BLACK
6
CONTINUOUS
10
102.5356000000000023
20
-97.0433000000000021
11
102.5356000000000023
21
-88.0433000000000021
0
LINE
8
BLACK
6
CONTINUOUS
10
106.0356000000000023
20
-88.0433000000000021
11
106.0356000000000023
21
-97.0433000000000021
0
LINE
8
BLACK
6
CONTINUOUS
10
106.0356000000000023
20
-97.0433000000000021
11
102.5356000000000023
21
-97.0433000000000021
0
LINE
8
BLACK
6
CONTINUOUS
10
139.0407999999999902
20
-114.0771000000000015
11
139.0407999999999902
21
-133.1270999999999844
0
LINE
8
BLACK
6
CONTINUOUS
10
139.0407999999999902
20
-133.1270999999999844
11
158.0908000000000015
21
-133.1270999999999844
0
LINE
8
BLACK
6
CONTINUOUS
10
158.0908000000000015
20
-114.0771000000000015
11
139.0407999999999902
21
-114.0771000000000015
0
LINE
8
BLACK
6
CONTINUOUS
10
158.0908000000000015
20
-133.1270999999999844
11
158.0908000000000015
21
-114.0771000000000015
0
LINE
8
BLACK
6
CONTINUOUS
10
139.0407999999999902
20
-97.0771000000000015
11
139.0407999999999902
21
-116.1270999999999987
0
LINE
8
BLACK
6
CONTINUOUS
10
139.0407999999999902
20
-116.1270999999999987
11
158.0908000000000015
21
-116.1270999999999987
0
LINE
8
BLACK
6
CONTINUOUS
10
158.0908000000000015
20
-97.0771000000000015
11
139.0407999999999902
21
-97.0771000000000015
0
LINE
8
BLACK
6
CONTINUOUS
10
158.0908000000000015
20
-116.1270999999999987
11
158.0908000000000015
21
-97.0771000000000015
0
LINE
8
BLACK
6
CONTINUOUS
10
116.625
20
-59.0521999999999991
11
107.625
21
-59.0521999999999991
0
LINE
8
BLACK
6
CONTINUOUS
10
107.625
20
-59.0521999999999991
11
107.625
21
-60.5521999999999991
0
LINE
8
BLACK
6
CONTINUOUS
10
107.625
20
-60.5521999999999991
11
116.625
21
-60.5521999999999991
0
LINE
8
BLACK
6
CONTINUOUS
10
116.625
20
-60.5521999999999991
11
116.625
21
-59.0521999999999991
0
LINE
8
BLACK
6
CONTINUOUS
10
121.0150000000000006
20
-81.5521999999999991
11
103.2349999999999994
21
-81.5521999999999991
0
LINE
8
BLACK
6
CONTINUOUS
10
103.2349999999999994
20
-81.5521999999999991
11
103.2349999999999994
21
-60.5521999999999991
0
LINE
8
BLACK
6
CONTINUOUS
10
103.2349999999999994
20
-60.5521999999999991
11
121.0150000000000006
21
-60.5521999999999991
0
LINE
8
BLACK
6
CONTINUOUS
10
121.0150000000000006
20
-60.5521999999999991
11
121.0150000000000006
21
-81.5521999999999991
0
POLYLINE
8
BLACK
66
1
70
1
40
0.5765
41
0.5765
0
VERTEX
8
BLACK
10
110.5667499999999848
 20
-62.4801999999999964
42
1.0
0
VERTEX
8
BLACK
10
111.1432499999999948
 20
-62.4801999999999964
42
1.0
0
SEQEND
0
POLYLINE
8
BLACK
66
1
70
1
40
0.5765
41
0.5765
0
VERTEX
8
BLACK
10
110.5667499999999848
 20
-65.0202000000000027
42
1.0
0
VERTEX
8
BLACK
10
111.1432499999999948
 20
-65.0202000000000027
42
1.0
0
SEQEND
0
POLYLINE
8
BLACK
66
1
70
1
40
0.5765
41
0.5765
0
VERTEX
8
BLACK
10
113.106749999999991
 20
-62.4801999999999964
42
1.0
0
VERTEX
8
BLACK
10
113.683250000000001
 20
-62.4801999999999964
42
1.0
0
SEQEND
0
POLYLINE
8
BLACK
66
1
70
1
40
0.5765
41
0.5765
0
VERTEX
8
BLACK
10
113.106749999999991
 20
-65.0202000000000027
42
1.0
0
VERTEX
8
BLACK
10
113.683250000000001
 20
-65.0202000000000027
42
1.0
0
SEQEND
0
LINE
8
BLACK
6
CONTINUOUS
10
190.0407999999999902
20
-114.0771000000000015
11
190.0407999999999902
21
-133.1270999999999844
0
LINE
8
BLACK
6
CONTINUOUS
10
190.0407999999999902
20
-133.1270999999999844
11
209.0908000000000015
21
-133.1270999999999844
0
LINE
8
BLACK
6
CONTINUOUS
10
209.0908000000000015
20
-114.0771000000000015
11
190.0407999999999902
21
-114.0771000000000015
0
LINE
8
BLACK
6
CONTINUOUS
10
209.0908000000000015
20
-133.1270999999999844
11
209.0908000000000015
21
-114.0771000000000015
  0
ENDSEC
  0
EOF
