  0
SECTION
  2
HEADER
  9
$ANGBASE
  50
0.0
  9
$ANGDIR
  70
1
  9
$MEASUREMENT
  70
1
  0
ENDSEC
  0
SECTION
  2
TABLES
  0
TABLE
  2
LTYPE
  70
4
  0
LTYPE
  5
40F
  2
CONTINUOUS
  70
0
  3
Solid line
  72
65
  73
0
  40
0.0
  0
LTYPE
  5
410
  2
DASHDOT
 70
0
  3
Dash Dot ____ _ ____ _
 72
65
 73
4
 40
2.0
 49
1.25
 49
-0.25
 49
0.25
 49
-0.25
  0
LTYPE
  5
411
  2
DASHED
 70
0
  3
Dashed __ __ __ __ __
 72
65
 73
2
 40
0.75
 49
0.5
 49
-0.25
  0
LTYPE
  5
43B
  2
DOTTED
 70
0
  3
Dotted .  .  .  .
 72
65
 73
2
 40
0.2
 49
0.0
 49
-0.2
  0
ENDTAB
  0
TABLE
  2
STYLE
  70
4
  0
STYLE
  2
KICAD
  70
0
  40
0
  41
1
  42
1
  50
0
  71
0
  3
isocp.shx
  0
STYLE
  2
KICADB
  70
0
  40
0
  41
1
  42
1
  50
0
  71
0
  3
isocp.shx
  0
STYLE
  2
KICADI
  70
0
  40
0
  41
1
  42
1
  50
15
  71
0
  3
isocp.shx
  0
STYLE
  2
KICADBI
  70
0
  40
0
  41
1
  42
1
  50
15
  71
0
  3
isocp.shx
  0
ENDTAB
  0
TABLE
  2
LAYER
  70
1
  0
LAYER
  2
BLACK
  70
0
  62
7
  6
CONTINUOUS
  0
ENDTAB
  0
ENDSEC
  0
SECTION
  2
ENTITIES
0
LINE
8
BLACK
6
CONTINUOUS
10
165.
20
-109.
11
141.
21
-109.
0
LINE
8
BLACK
6
CONTINUOUS
10
141.
20
-129.
11
95.
21
-129.0250000000000057
0
LINE
8
BLACK
6
CONTINUOUS
10
204.
20
-51.0249999999999986
11
204.
21
-129.0250000000000057
0
LINE
8
BLACK
6
CONTINUOUS
10
95.
20
-51.0249999999999986
11
204.
21
-51.0249999999999986
0
LINE
8
BLACK
6
CONTINUOUS
10
165.
20
-129.0250000000000057
11
204.
21
-129.0250000000000057
0
LINE
8
BLACK
6
CONTINUOUS
10
165.
20
-109.
11
165.
21
-129.0250000000000057
0
LINE
8
BLACK
6
CONTINUOUS
10
141.
20
-109.
11
141.
21
-129.
0
LINE
8
BLACK
6
CONTINUOUS
10
95.
20
-51.0249999999999986
11
95.
21
-129.0250000000000057
0
LINE
8
BLACK
6
CONTINUOUS
10
188.0147529999999847
20
-72.235952999999995
11
188.0147529999999847
21
-70.635752999999994
0
LINE
8
BLACK
6
CONTINUOUS
10
188.3957529999999849
20
-70.2547529999999938
11
190.0467529999999954
21
-70.2547529999999938
0
LINE
8
BLACK
6
CONTINUOUS
10
189.7419529999999952
20
-72.9217529999999954
11
188.7005529999999851
21
-72.9217529999999954
0
LINE
8
BLACK
6
CONTINUOUS
10
190.4277529999999956
20
-70.635752999999994
11
190.4277529999999956
21
-72.235952999999995
0
LINE
8
BLACK
6
CONTINUOUS
10
196.0407529999999952
20
-62.8982469999999978
11
196.0407529999999952
21
-61.2472469999999944
0
LINE
8
BLACK
6
CONTINUOUS
10
196.4217529999999954
20
-60.8662469999999942
11
198.0219529999999963
21
-60.8662469999999942
0
LINE
8
BLACK
6
CONTINUOUS
10
198.0219529999999963
20
-63.279246999999998
11
196.4217529999999954
21
-63.279246999999998
0
LINE
8
BLACK
6
CONTINUOUS
10
198.7077529999999967
20
-61.5520469999999946
11
198.7077529999999967
21
-62.5934469999999976
0
ARC
8
BLACK
10
188.3957499999999925
20
-70.6357500000000016
40
0.3809970000118111
50
-270.00045115
51
-179.99954885
0
ARC
8
BLACK
10
188.2624999999999886
20
-72.6739999999999924
40
0.5032531671216784
50
-29.49153157
51
119.49127326
0
ARC
8
BLACK
10
190.1799999999999784
20
-72.6739999999999924
40
0.5032561208947189
50
-299.49186786
51
-150.50813214
0
ARC
8
BLACK
10
190.0467599999999777
20
-70.6357399999999984
40
0.3809870000643066
50
-0.00195501
51
90.00105271
0
ARC
8
BLACK
10
196.4217449999999872
20
-61.2472390000000004
40
0.3809920000839913
50
-270.00120309
51
-179.99879691
0
ARC
8
BLACK
10
196.4217489999999771
20
-62.8982509999999948
40
0.3809960000209976
50
-180.00060154
51
-89.99939846
0
ARC
8
BLACK
10
198.4599999999999795
20
-63.031493999999995
40
0.5032561208947189
50
-299.49186786
51
-150.50813214
0
ARC
8
BLACK
10
198.4599999999999795
20
-61.1139999999999972
40
0.5032561208947189
50
-209.49186786
51
-60.50813214
0
CIRCLE
8
BLACK
10
181.0022999999999911
20
-55.
40
2.4499999999999997
0
CIRCLE
8
BLACK
10
98.1891999999999996
20
-55.5606999999999971
40
2.4499999999999997
0
CIRCLE
8
BLACK
10
200.7085999999999899
20
-124.3763000000000005
40
2.4499999999999997
0
LINE
8
BLACK
6
CONTINUOUS
10
137.25
20
-108.5604999999999905
11
140.7999999999999829
21
-108.5604999999999905
0
LINE
8
BLACK
6
CONTINUOUS
10
137.25
20
-127.3604999999999876
11
137.25
21
-108.5604999999999905
0
LINE
8
BLACK
6
CONTINUOUS
10
140.7999999999999829
20
-108.5604999999999905
11
140.7999999999999829
21
-127.3604999999999876
0
LINE
8
BLACK
6
CONTINUOUS
10
140.7999999999999829
20
-127.3604999999999876
11
137.25
21
-127.3604999999999876
0
LINE
8
BLACK
6
CONTINUOUS
10
191.3152999999999793
20
-56.1248000000000005
11
191.3152999999999793
21
-58.524799999999999
0
LINE
8
BLACK
6
CONTINUOUS
10
191.3152999999999793
20
-56.1248000000000005
11
194.0652999999999793
21
-56.1248000000000005
0
LINE
8
BLACK
6
CONTINUOUS
10
194.0652999999999793
20
-58.524799999999999
11
191.3152999999999793
21
-58.524799999999999
0
LINE
8
BLACK
6
CONTINUOUS
10
194.0652999999999793
20
-58.524799999999999
11
194.0652999999999793
21
-56.1248000000000005
0
LINE
8
BLACK
6
CONTINUOUS
10
193.8591999999999871
20
-56.1193999999999988
11
193.8591999999999871
21
-58.5193999999999974
0
LINE
8
BLACK
6
CONTINUOUS
10
193.8591999999999871
20
-56.1193999999999988
11
196.6091999999999871
21
-56.1193999999999988
0
LINE
8
BLACK
6
CONTINUOUS
10
196.6091999999999871
20
-58.5193999999999974
11
193.8591999999999871
21
-58.5193999999999974
0
LINE
8
BLACK
6
CONTINUOUS
10
196.6091999999999871
20
-58.5193999999999974
11
196.6091999999999871
21
-56.1193999999999988
0
CIRCLE
8
BLACK
10
97.8319999999999936
20
-124.75
40
2.4499999999999997
0
LINE
8
BLACK
6
CONTINUOUS
10
99.6255999999999915
20
-57.7668999999999997
11
99.6255999999999915
21
-71.7668999999999926
0
LINE
8
BLACK
6
CONTINUOUS
10
99.6255999999999915
20
-71.7668999999999926
11
113.6255999999999915
21
-71.7668999999999926
0
LINE
8
BLACK
6
CONTINUOUS
10
113.6255999999999915
20
-57.7668999999999997
11
99.6255999999999915
21
-57.7668999999999997
0
LINE
8
BLACK
6
CONTINUOUS
10
113.6255999999999915
20
-71.7668999999999926
11
113.6255999999999915
21
-57.7668999999999997
0
LINE
8
BLACK
6
CONTINUOUS
10
116.6255999999999915
20
-108.7668999999999926
11
116.6255999999999915
21
-122.7668999999999926
0
LINE
8
BLACK
6
CONTINUOUS
10
116.6255999999999915
20
-122.7668999999999926
11
130.6255999999999915
21
-122.7668999999999926
0
LINE
8
BLACK
6
CONTINUOUS
10
130.6255999999999915
20
-108.7668999999999926
11
116.6255999999999915
21
-108.7668999999999926
0
LINE
8
BLACK
6
CONTINUOUS
10
130.6255999999999915
20
-122.7668999999999926
11
130.6255999999999915
21
-108.7668999999999926
0
LINE
8
BLACK
6
CONTINUOUS
10
150.6255999999999915
20
-91.7668999999999926
11
150.6255999999999915
21
-105.7668999999999926
0
LINE
8
BLACK
6
CONTINUOUS
10
150.6255999999999915
20
-105.7668999999999926
11
164.6255999999999915
21
-105.7668999999999926
0
LINE
8
BLACK
6
CONTINUOUS
10
164.6255999999999915
20
-91.7668999999999926
11
150.6255999999999915
21
-91.7668999999999926
0
LINE
8
BLACK
6
CONTINUOUS
10
164.6255999999999915
20
-105.7668999999999926
11
164.6255999999999915
21
-91.7668999999999926
0
LINE
8
BLACK
6
CONTINUOUS
10
184.6255999999999915
20
-108.7668999999999926
11
184.6255999999999915
21
-122.7668999999999926
0
LINE
8
BLACK
6
CONTINUOUS
10
184.6255999999999915
20
-122.7668999999999926
11
198.6255999999999915
21
-122.7668999999999926
0
LINE
8
BLACK
6
CONTINUOUS
10
198.6255999999999915
20
-108.7668999999999926
11
184.6255999999999915
21
-108.7668999999999926
0
LINE
8
BLACK
6
CONTINUOUS
10
198.6255999999999915
20
-122.7668999999999926
11
198.6255999999999915
21
-108.7668999999999926
0
LINE
8
BLACK
6
CONTINUOUS
10
150.6255999999999915
20
-57.7668999999999997
11
150.6255999999999915
21
-71.7668999999999926
0
LINE
8
BLACK
6
CONTINUOUS
10
150.6255999999999915
20
-71.7668999999999926
11
164.6255999999999915
21
-71.7668999999999926
0
LINE
8
BLACK
6
CONTINUOUS
10
164.6255999999999915
20
-57.7668999999999997
11
150.6255999999999915
21
-57.7668999999999997
0
LINE
8
BLACK
6
CONTINUOUS
10
164.6255999999999915
20
-71.7668999999999926
11
164.6255999999999915
21
-57.7668999999999997
0
LINE
8
BLACK
6
CONTINUOUS
10
167.6255999999999915
20
-57.7668999999999997
11
167.6255999999999915
21
-71.7668999999999926
0
LINE
8
BLACK
6
CONTINUOUS
10
167.6255999999999915
20
-71.7668999999999926
11
181.6255999999999915
21
-71.7668999999999926
0
LINE
8
BLACK
6
CONTINUOUS
10
181.6255999999999915
20
-57.7668999999999997
11
167.6255999999999915
21
-57.7668999999999997
0
LINE
8
BLACK
6
CONTINUOUS
10
181.6255999999999915
20
-71.7668999999999926
11
181.6255999999999915
21
-57.7668999999999997
0
LINE
8
BLACK
6
CONTINUOUS
10
133.6255999999999915
20
-91.7668999999999926
11
133.6255999999999915
21
-105.7668999999999926
0
LINE
8
BLACK
6
CONTINUOUS
10
133.6255999999999915
20
-105.7668999999999926
11
147.6255999999999915
21
-105.7668999999999926
0
LINE
8
BLACK
6
CONTINUOUS
10
147.6255999999999915
20
-91.7668999999999926
11
133.6255999999999915
21
-91.7668999999999926
0
LINE
8
BLACK
6
CONTINUOUS
10
147.6255999999999915
20
-105.7668999999999926
11
147.6255999999999915
21
-91.7668999999999926
0
LINE
8
BLACK
6
CONTINUOUS
10
184.6255999999999915
20
-91.7668999999999926
11
184.6255999999999915
21
-105.7668999999999926
0
LINE
8
BLACK
6
CONTINUOUS
10
184.6255999999999915
20
-105.7668999999999926
11
198.6255999999999915
21
-105.7668999999999926
0
LINE
8
BLACK
6
CONTINUOUS
10
198.6255999999999915
20
-91.7668999999999926
11
184.6255999999999915
21
-91.7668999999999926
0
LINE
8
BLACK
6
CONTINUOUS
10
198.6255999999999915
20
-105.7668999999999926
11
198.6255999999999915
21
-91.7668999999999926
0
LINE
8
BLACK
6
CONTINUOUS
10
167.6255999999999915
20
-91.7668999999999926
11
167.6255999999999915
21
-105.7668999999999926
0
LINE
8
BLACK
6
CONTINUOUS
10
167.6255999999999915
20
-105.7668999999999926
11
181.6255999999999915
21
-105.7668999999999926
0
LINE
8
BLACK
6
CONTINUOUS
10
181.6255999999999915
20
-91.7668999999999926
11
167.6255999999999915
21
-91.7668999999999926
0
LINE
8
BLACK
6
CONTINUOUS
10
181.6255999999999915
20
-105.7668999999999926
11
181.6255999999999915
21
-91.7668999999999926
0
LINE
8
BLACK
6
CONTINUOUS
10
167.6255999999999915
20
-108.7668999999999926
11
167.6255999999999915
21
-122.7668999999999926
0
LINE
8
BLACK
6
CONTINUOUS
10
167.6255999999999915
20
-122.7668999999999926
11
181.6255999999999915
21
-122.7668999999999926
0
LINE
8
BLACK
6
CONTINUOUS
10
181.6255999999999915
20
-108.7668999999999926
11
167.6255999999999915
21
-108.7668999999999926
0
LINE
8
BLACK
6
CONTINUOUS
10
181.6255999999999915
20
-122.7668999999999926
11
181.6255999999999915
21
-108.7668999999999926
0
LINE
8
BLACK
6
CONTINUOUS
10
99.6255999999999915
20
-91.7668999999999926
11
99.6255999999999915
21
-105.7668999999999926
0
LINE
8
BLACK
6
CONTINUOUS
10
99.6255999999999915
20
-105.7668999999999926
11
113.6255999999999915
21
-105.7668999999999926
0
LINE
8
BLACK
6
CONTINUOUS
10
113.6255999999999915
20
-91.7668999999999926
11
99.6255999999999915
21
-91.7668999999999926
0
LINE
8
BLACK
6
CONTINUOUS
10
113.6255999999999915
20
-105.7668999999999926
11
113.6255999999999915
21
-91.7668999999999926
0
LINE
8
BLACK
6
CONTINUOUS
10
116.6255999999999915
20
-91.7668999999999926
11
116.6255999999999915
21
-105.7668999999999926
0
LINE
8
BLACK
6
CONTINUOUS
10
116.6255999999999915
20
-105.7668999999999926
11
130.6255999999999915
21
-105.7668999999999926
0
LINE
8
BLACK
6
CONTINUOUS
10
130.6255999999999915
20
-91.7668999999999926
11
116.6255999999999915
21
-91.7668999999999926
0
LINE
8
BLACK
6
CONTINUOUS
10
130.6255999999999915
20
-105.7668999999999926
11
130.6255999999999915
21
-91.7668999999999926
0
LINE
8
BLACK
6
CONTINUOUS
10
133.6255999999999915
20
-74.7668999999999926
11
133.6255999999999915
21
-88.7668999999999926
0
LINE
8
BLACK
6
CONTINUOUS
10
133.6255999999999915
20
-88.7668999999999926
11
147.6255999999999915
21
-88.7668999999999926
0
LINE
8
BLACK
6
CONTINUOUS
10
147.6255999999999915
20
-74.7668999999999926
11
133.6255999999999915
21
-74.7668999999999926
0
LINE
8
BLACK
6
CONTINUOUS
10
147.6255999999999915
20
-88.7668999999999926
11
147.6255999999999915
21
-74.7668999999999926
0
LINE
8
BLACK
6
CONTINUOUS
10
116.6255999999999915
20
-57.7668999999999997
11
116.6255999999999915
21
-71.7668999999999926
0
LINE
8
BLACK
6
CONTINUOUS
10
116.6255999999999915
20
-71.7668999999999926
11
130.6255999999999915
21
-71.7668999999999926
0
LINE
8
BLACK
6
CONTINUOUS
10
130.6255999999999915
20
-57.7668999999999997
11
116.6255999999999915
21
-57.7668999999999997
0
LINE
8
BLACK
6
CONTINUOUS
10
130.6255999999999915
20
-71.7668999999999926
11
130.6255999999999915
21
-57.7668999999999997
0
LINE
8
BLACK
6
CONTINUOUS
10
116.6255999999999915
20
-74.7668999999999926
11
116.6255999999999915
21
-88.7668999999999926
0
LINE
8
BLACK
6
CONTINUOUS
10
116.6255999999999915
20
-88.7668999999999926
11
130.6255999999999915
21
-88.7668999999999926
0
LINE
8
BLACK
6
CONTINUOUS
10
130.6255999999999915
20
-74.7668999999999926
11
116.6255999999999915
21
-74.7668999999999926
0
LINE
8
BLACK
6
CONTINUOUS
10
130.6255999999999915
20
-88.7668999999999926
11
130.6255999999999915
21
-74.7668999999999926
0
LINE
8
BLACK
6
CONTINUOUS
10
133.6255999999999915
20
-57.7668999999999997
11
133.6255999999999915
21
-71.7668999999999926
0
LINE
8
BLACK
6
CONTINUOUS
10
133.6255999999999915
20
-71.7668999999999926
11
147.6255999999999915
21
-71.7668999999999926
0
LINE
8
BLACK
6
CONTINUOUS
10
147.6255999999999915
20
-57.7668999999999997
11
133.6255999999999915
21
-57.7668999999999997
0
LINE
8
BLACK
6
CONTINUOUS
10
147.6255999999999915
20
-71.7668999999999926
11
147.6255999999999915
21
-57.7668999999999997
0
LINE
8
BLACK
6
CONTINUOUS
10
99.6255999999999915
20
-108.7668999999999926
11
99.6255999999999915
21
-122.7668999999999926
0
LINE
8
BLACK
6
CONTINUOUS
10
99.6255999999999915
20
-122.7668999999999926
11
113.6255999999999915
21
-122.7668999999999926
0
LINE
8
BLACK
6
CONTINUOUS
10
113.6255999999999915
20
-108.7668999999999926
11
99.6255999999999915
21
-108.7668999999999926
0
LINE
8
BLACK
6
CONTINUOUS
10
113.6255999999999915
20
-122.7668999999999926
11
113.6255999999999915
21
-108.7668999999999926
0
LINE
8
BLACK
6
CONTINUOUS
10
99.6255999999999915
20
-74.7668999999999926
11
99.6255999999999915
21
-88.7668999999999926
0
LINE
8
BLACK
6
CONTINUOUS
10
99.6255999999999915
20
-88.7668999999999926
11
113.6255999999999915
21
-88.7668999999999926
0
LINE
8
BLACK
6
CONTINUOUS
10
113.6255999999999915
20
-74.7668999999999926
11
99.6255999999999915
21
-74.7668999999999926
0
LINE
8
BLACK
6
CONTINUOUS
10
113.6255999999999915
20
-88.7668999999999926
11
113.6255999999999915
21
-74.7668999999999926
0
LINE
8
BLACK
6
CONTINUOUS
10
167.6255999999999915
20
-74.7668999999999926
11
167.6255999999999915
21
-88.7668999999999926
0
LINE
8
BLACK
6
CONTINUOUS
10
167.6255999999999915
20
-88.7668999999999926
11
181.6255999999999915
21
-88.7668999999999926
0
LINE
8
BLACK
6
CONTINUOUS
10
181.6255999999999915
20
-74.7668999999999926
11
167.6255999999999915
21
-74.7668999999999926
0
LINE
8
BLACK
6
CONTINUOUS
10
181.6255999999999915
20
-88.7668999999999926
11
181.6255999999999915
21
-74.7668999999999926
0
LINE
8
BLACK
6
CONTINUOUS
10
150.6255999999999915
20
-74.7668999999999926
11
150.6255999999999915
21
-88.7668999999999926
0
LINE
8
BLACK
6
CONTINUOUS
10
150.6255999999999915
20
-88.7668999999999926
11
164.6255999999999915
21
-88.7668999999999926
0
LINE
8
BLACK
6
CONTINUOUS
10
164.6255999999999915
20
-74.7668999999999926
11
150.6255999999999915
21
-74.7668999999999926
0
LINE
8
BLACK
6
CONTINUOUS
10
164.6255999999999915
20
-88.7668999999999926
11
164.6255999999999915
21
-74.7668999999999926
0
LINE
8
BLACK
6
CONTINUOUS
10
203.3373189999999795
20
-80.8314989999999938
11
202.3373189999999795
21
-80.8314989999999938
0
LINE
8
BLACK
6
CONTINUOUS
10
202.3373189999999795
20
-80.8314989999999938
11
203.0516039999999975
21
-81.1314989999999909
0
LINE
8
BLACK
6
CONTINUOUS
10
203.0516039999999975
20
-81.1314989999999909
11
202.3373189999999795
21
-81.4314990000000023
0
LINE
8
BLACK
6
CONTINUOUS
10
202.3373189999999795
20
-81.4314990000000023
11
203.3373189999999795
21
-81.4314990000000023
0
LINE
8
BLACK
6
CONTINUOUS
10
203.2896999999999821
20
-81.8172129999999953
11
203.3373189999999795
21
-81.9457850000000008
0
LINE
8
BLACK
6
CONTINUOUS
10
203.3373189999999795
20
-81.9457850000000008
11
203.3373189999999795
21
-82.1600699999999904
0
LINE
8
BLACK
6
CONTINUOUS
10
203.3373189999999795
20
-82.1600699999999904
11
203.2896999999999821
21
-82.2457849999999979
0
LINE
8
BLACK
6
CONTINUOUS
10
203.2896999999999821
20
-82.2457849999999979
11
203.2420799999999872
21
-82.2886419999999958
0
LINE
8
BLACK
6
CONTINUOUS
10
203.2420799999999872
20
-82.2886419999999958
11
203.1468419999999924
21
-82.3314989999999938
0
LINE
8
BLACK
6
CONTINUOUS
10
203.1468419999999924
20
-82.3314989999999938
11
203.0516039999999975
21
-82.3314989999999938
0
LINE
8
BLACK
6
CONTINUOUS
10
203.0516039999999975
20
-82.3314989999999938
11
202.9563660000000027
21
-82.2886419999999958
0
LINE
8
BLACK
6
CONTINUOUS
10
202.9563660000000027
20
-82.2886419999999958
11
202.9087469999999769
21
-82.2457849999999979
0
LINE
8
BLACK
6
CONTINUOUS
10
202.9087469999999769
20
-82.2457849999999979
11
202.8611279999999795
21
-82.1600699999999904
0
LINE
8
BLACK
6
CONTINUOUS
10
202.8611279999999795
20
-82.1600699999999904
11
202.8135089999999821
21
-81.9886419999999987
0
LINE
8
BLACK
6
CONTINUOUS
10
202.8135089999999821
20
-81.9886419999999987
11
202.7658899999999846
21
-81.9029269999999912
0
LINE
8
BLACK
6
CONTINUOUS
10
202.7658899999999846
20
-81.9029269999999912
11
202.7182709999999872
21
-81.8600699999999932
0
LINE
8
BLACK
6
CONTINUOUS
10
202.7182709999999872
20
-81.8600699999999932
11
202.6230329999999924
21
-81.8172129999999953
0
LINE
8
BLACK
6
CONTINUOUS
10
202.6230329999999924
20
-81.8172129999999953
11
202.5277949999999976
21
-81.8172129999999953
0
LINE
8
BLACK
6
CONTINUOUS
10
202.5277949999999976
20
-81.8172129999999953
11
202.4325570000000027
21
-81.8600699999999932
0
LINE
8
BLACK
6
CONTINUOUS
10
202.4325570000000027
20
-81.8600699999999932
11
202.3849379999999769
21
-81.9029269999999912
0
LINE
8
BLACK
6
CONTINUOUS
10
202.3849379999999769
20
-81.9029269999999912
11
202.3373189999999795
21
-81.9886419999999987
0
LINE
8
BLACK
6
CONTINUOUS
10
202.3373189999999795
20
-81.9886419999999987
11
202.3373189999999795
21
-82.2029270000000025
0
LINE
8
BLACK
6
CONTINUOUS
10
202.3373189999999795
20
-82.2029270000000025
11
202.3849379999999769
21
-82.3314989999999938
0
LINE
8
BLACK
6
CONTINUOUS
10
203.3373189999999795
20
-82.717213000000001
11
202.3373189999999795
21
-82.717213000000001
0
LINE
8
BLACK
6
CONTINUOUS
10
203.3373189999999795
20
-83.2314989999999995
11
202.7658899999999846
21
-82.8457849999999922
0
LINE
8
BLACK
6
CONTINUOUS
10
202.3373189999999795
20
-83.2314989999999995
11
202.9087469999999769
21
-82.717213000000001
0
LINE
8
BLACK
6
CONTINUOUS
10
202.9563660000000027
20
-83.6172129999999925
11
202.9563660000000027
21
-84.3029279999999943
0
LINE
8
BLACK
6
CONTINUOUS
10
203.3373189999999795
20
-85.202928
11
203.3373189999999795
21
-84.6886420000000015
0
LINE
8
BLACK
6
CONTINUOUS
10
203.3373189999999795
20
-84.9457850000000008
11
202.3373189999999795
21
-84.9457850000000008
0
LINE
8
BLACK
6
CONTINUOUS
10
202.3373189999999795
20
-84.9457850000000008
11
202.4801760000000002
21
-84.8600709999999907
0
LINE
8
BLACK
6
CONTINUOUS
10
202.4801760000000002
20
-84.8600709999999907
11
202.575413999999995
21
-84.7743559999999974
0
LINE
8
BLACK
6
CONTINUOUS
10
202.575413999999995
20
-84.7743559999999974
11
202.6230329999999924
21
-84.6886420000000015
0
LINE
8
BLACK
6
CONTINUOUS
10
202.4325570000000027
20
-85.5457849999999951
11
202.3849379999999769
21
-85.588641999999993
0
LINE
8
BLACK
6
CONTINUOUS
10
202.3849379999999769
20
-85.588641999999993
11
202.3373189999999795
21
-85.6743570000000005
0
LINE
8
BLACK
6
CONTINUOUS
10
202.3373189999999795
20
-85.6743570000000005
11
202.3373189999999795
21
-85.8886419999999902
0
LINE
8
BLACK
6
CONTINUOUS
10
202.3373189999999795
20
-85.8886419999999902
11
202.3849379999999769
21
-85.9743569999999977
0
LINE
8
BLACK
6
CONTINUOUS
10
202.3849379999999769
20
-85.9743569999999977
11
202.4325570000000027
21
-86.0172139999999956
0
LINE
8
BLACK
6
CONTINUOUS
10
202.4325570000000027
20
-86.0172139999999956
11
202.5277949999999976
21
-86.0600709999999935
0
LINE
8
BLACK
6
CONTINUOUS
10
202.5277949999999976
20
-86.0600709999999935
11
202.6230329999999924
21
-86.0600709999999935
0
LINE
8
BLACK
6
CONTINUOUS
10
202.6230329999999924
20
-86.0600709999999935
11
202.7658899999999846
21
-86.0172139999999956
0
LINE
8
BLACK
6
CONTINUOUS
10
202.7658899999999846
20
-86.0172139999999956
11
203.3373189999999795
21
-85.5029279999999972
0
LINE
8
BLACK
6
CONTINUOUS
10
203.3373189999999795
20
-85.5029279999999972
11
203.3373189999999795
21
-86.0600709999999935
0
LINE
8
BLACK
6
CONTINUOUS
10
203.3373189999999795
20
-86.4457850000000008
11
202.3373189999999795
21
-86.4457850000000008
0
LINE
8
BLACK
6
CONTINUOUS
10
202.3373189999999795
20
-86.4457850000000008
11
202.3373189999999795
21
-86.6600710000000021
0
LINE
8
BLACK
6
CONTINUOUS
10
202.3373189999999795
20
-86.6600710000000021
11
202.3849379999999769
21
-86.7886419999999958
0
LINE
8
BLACK
6
CONTINUOUS
10
202.3849379999999769
20
-86.7886419999999958
11
202.4801760000000002
21
-86.8743569999999892
0
LINE
8
BLACK
6
CONTINUOUS
10
202.4801760000000002
20
-86.8743569999999892
11
202.575413999999995
21
-86.9172140000000013
0
LINE
8
BLACK
6
CONTINUOUS
10
202.575413999999995
20
-86.9172140000000013
11
202.7658899999999846
21
-86.9600709999999992
0
LINE
8
BLACK
6
CONTINUOUS
10
202.7658899999999846
20
-86.9600709999999992
11
202.9087469999999769
21
-86.9600709999999992
0
LINE
8
BLACK
6
CONTINUOUS
10
202.9087469999999769
20
-86.9600709999999992
11
203.099222999999995
21
-86.9172140000000013
0
LINE
8
BLACK
6
CONTINUOUS
10
203.099222999999995
20
-86.9172140000000013
11
203.1944609999999898
21
-86.8743569999999892
0
LINE
8
BLACK
6
CONTINUOUS
10
203.1944609999999898
20
-86.8743569999999892
11
203.2896999999999821
21
-86.7886419999999958
0
LINE
8
BLACK
6
CONTINUOUS
10
203.2896999999999821
20
-86.7886419999999958
11
203.3373189999999795
21
-86.6600710000000021
0
LINE
8
BLACK
6
CONTINUOUS
10
203.3373189999999795
20
-86.6600710000000021
11
203.3373189999999795
21
-86.4457850000000008
0
LINE
8
BLACK
6
CONTINUOUS
10
203.3373189999999795
20
-87.8172139999999928
11
203.3373189999999795
21
-87.3029279999999943
0
LINE
8
BLACK
6
CONTINUOUS
10
203.3373189999999795
20
-87.5600709999999935
11
202.3373189999999795
21
-87.5600709999999935
0
LINE
8
BLACK
6
CONTINUOUS
10
202.3373189999999795
20
-87.5600709999999935
11
202.4801760000000002
21
-87.4743569999999977
0
LINE
8
BLACK
6
CONTINUOUS
10
202.4801760000000002
20
-87.4743569999999977
11
202.575413999999995
21
-87.3886419999999902
0
LINE
8
BLACK
6
CONTINUOUS
10
202.575413999999995
20
-87.3886419999999902
11
202.6230329999999924
21
-87.3029279999999943
0
LINE
8
BLACK
6
CONTINUOUS
10
203.3373189999999795
20
-88.2457849999999979
11
203.3373189999999795
21
-88.4172140000000013
0
LINE
8
BLACK
6
CONTINUOUS
10
203.3373189999999795
20
-88.4172140000000013
11
203.2896999999999821
21
-88.5029279999999972
0
LINE
8
BLACK
6
CONTINUOUS
10
203.2896999999999821
20
-88.5029279999999972
11
203.2420799999999872
21
-88.5457849999999951
0
LINE
8
BLACK
6
CONTINUOUS
10
203.2420799999999872
20
-88.5457849999999951
11
203.099222999999995
21
-88.6315000000000026
0
LINE
8
BLACK
6
CONTINUOUS
10
203.099222999999995
20
-88.6315000000000026
11
202.9087469999999769
21
-88.6743570000000005
0
LINE
8
BLACK
6
CONTINUOUS
10
202.9087469999999769
20
-88.6743570000000005
11
202.5277949999999976
21
-88.6743570000000005
0
LINE
8
BLACK
6
CONTINUOUS
10
202.5277949999999976
20
-88.6743570000000005
11
202.4325570000000027
21
-88.6315000000000026
0
LINE
8
BLACK
6
CONTINUOUS
10
202.4325570000000027
20
-88.6315000000000026
11
202.3849379999999769
21
-88.5886429999999905
0
LINE
8
BLACK
6
CONTINUOUS
10
202.3849379999999769
20
-88.5886429999999905
11
202.3373189999999795
21
-88.5029279999999972
0
LINE
8
BLACK
6
CONTINUOUS
10
202.3373189999999795
20
-88.5029279999999972
11
202.3373189999999795
21
-88.3314999999999912
0
LINE
8
BLACK
6
CONTINUOUS
10
202.3373189999999795
20
-88.3314999999999912
11
202.3849379999999769
21
-88.2457849999999979
0
LINE
8
BLACK
6
CONTINUOUS
10
202.3849379999999769
20
-88.2457849999999979
11
202.4325570000000027
21
-88.202928
0
LINE
8
BLACK
6
CONTINUOUS
10
202.4325570000000027
20
-88.202928
11
202.5277949999999976
21
-88.1600710000000021
0
LINE
8
BLACK
6
CONTINUOUS
10
202.5277949999999976
20
-88.1600710000000021
11
202.7658899999999846
21
-88.1600710000000021
0
LINE
8
BLACK
6
CONTINUOUS
10
202.7658899999999846
20
-88.1600710000000021
11
202.8611279999999795
21
-88.202928
0
LINE
8
BLACK
6
CONTINUOUS
10
202.8611279999999795
20
-88.202928
11
202.9087469999999769
21
-88.2457849999999979
0
LINE
8
BLACK
6
CONTINUOUS
10
202.9087469999999769
20
-88.2457849999999979
11
202.9563660000000027
21
-88.3314999999999912
0
LINE
8
BLACK
6
CONTINUOUS
10
202.9563660000000027
20
-88.3314999999999912
11
202.9563660000000027
21
-88.5029279999999972
0
LINE
8
BLACK
6
CONTINUOUS
10
202.9563660000000027
20
-88.5029279999999972
11
202.9087469999999769
21
-88.5886429999999905
0
LINE
8
BLACK
6
CONTINUOUS
10
202.9087469999999769
20
-88.5886429999999905
11
202.8611279999999795
21
-88.6315000000000026
0
LINE
8
BLACK
6
CONTINUOUS
10
202.8611279999999795
20
-88.6315000000000026
11
202.7658899999999846
21
-88.6743570000000005
0
LINE
8
BLACK
6
CONTINUOUS
10
200.3824999999999932
20
-80.2314999999999969
11
203.8824999999999932
21
-80.2314999999999969
0
LINE
8
BLACK
6
CONTINUOUS
10
200.3824999999999932
20
-89.2314999999999969
11
200.3824999999999932
21
-80.2314999999999969
0
LINE
8
BLACK
6
CONTINUOUS
10
203.8824999999999932
20
-80.2314999999999969
11
203.8824999999999932
21
-89.2314999999999969
0
LINE
8
BLACK
6
CONTINUOUS
10
203.8824999999999932
20
-89.2314999999999969
11
200.3824999999999932
21
-89.2314999999999969
0
LINE
8
BLACK
6
CONTINUOUS
10
97.1006
20
-55.241899999999994
11
97.1006
21
-74.2918999999999983
0
LINE
8
BLACK
6
CONTINUOUS
10
97.1006
20
-74.2918999999999983
11
116.1505999999999972
21
-74.2918999999999983
0
LINE
8
BLACK
6
CONTINUOUS
10
116.1505999999999972
20
-55.241899999999994
11
97.1006
21
-55.241899999999994
0
LINE
8
BLACK
6
CONTINUOUS
10
116.1505999999999972
20
-74.2918999999999983
11
116.1505999999999972
21
-55.241899999999994
0
LINE
8
BLACK
6
CONTINUOUS
10
114.1006
20
-106.2419000000000011
11
114.1006
21
-125.2918999999999983
0
LINE
8
BLACK
6
CONTINUOUS
10
114.1006
20
-125.2918999999999983
11
133.1505999999999972
21
-125.2918999999999983
0
LINE
8
BLACK
6
CONTINUOUS
10
133.1505999999999972
20
-106.2419000000000011
11
114.1006
21
-106.2419000000000011
0
LINE
8
BLACK
6
CONTINUOUS
10
133.1505999999999972
20
-125.2918999999999983
11
133.1505999999999972
21
-106.2419000000000011
0
LINE
8
BLACK
6
CONTINUOUS
10
148.1005999999999858
20
-89.2419000000000011
11
148.1005999999999858
21
-108.2918999999999983
0
LINE
8
BLACK
6
CONTINUOUS
10
148.1005999999999858
20
-108.2918999999999983
11
167.1505999999999972
21
-108.2918999999999983
0
LINE
8
BLACK
6
CONTINUOUS
10
167.1505999999999972
20
-89.2419000000000011
11
148.1005999999999858
21
-89.2419000000000011
0
LINE
8
BLACK
6
CONTINUOUS
10
167.1505999999999972
20
-108.2918999999999983
11
167.1505999999999972
21
-89.2419000000000011
0
LINE
8
BLACK
6
CONTINUOUS
10
182.1005999999999858
20
-106.2419000000000011
11
182.1005999999999858
21
-125.2918999999999983
0
LINE
8
BLACK
6
CONTINUOUS
10
182.1005999999999858
20
-125.2918999999999983
11
201.1505999999999972
21
-125.2918999999999983
0
LINE
8
BLACK
6
CONTINUOUS
10
201.1505999999999972
20
-106.2419000000000011
11
182.1005999999999858
21
-106.2419000000000011
0
LINE
8
BLACK
6
CONTINUOUS
10
201.1505999999999972
20
-125.2918999999999983
11
201.1505999999999972
21
-106.2419000000000011
0
LINE
8
BLACK
6
CONTINUOUS
10
148.1005999999999858
20
-55.241899999999994
11
148.1005999999999858
21
-74.2918999999999983
0
LINE
8
BLACK
6
CONTINUOUS
10
148.1005999999999858
20
-74.2918999999999983
11
167.1505999999999972
21
-74.2918999999999983
0
LINE
8
BLACK
6
CONTINUOUS
10
167.1505999999999972
20
-55.241899999999994
11
148.1005999999999858
21
-55.241899999999994
0
LINE
8
BLACK
6
CONTINUOUS
10
167.1505999999999972
20
-74.2918999999999983
11
167.1505999999999972
21
-55.241899999999994
0
LINE
8
BLACK
6
CONTINUOUS
10
165.1005999999999858
20
-55.241899999999994
11
165.1005999999999858
21
-74.2918999999999983
0
LINE
8
BLACK
6
CONTINUOUS
10
165.1005999999999858
20
-74.2918999999999983
11
184.1505999999999972
21
-74.2918999999999983
0
LINE
8
BLACK
6
CONTINUOUS
10
184.1505999999999972
20
-55.241899999999994
11
165.1005999999999858
21
-55.241899999999994
0
LINE
8
BLACK
6
CONTINUOUS
10
184.1505999999999972
20
-74.2918999999999983
11
184.1505999999999972
21
-55.241899999999994
0
LINE
8
BLACK
6
CONTINUOUS
10
131.1005999999999858
20
-89.2419000000000011
11
131.1005999999999858
21
-108.2918999999999983
0
LINE
8
BLACK
6
CONTINUOUS
10
131.1005999999999858
20
-108.2918999999999983
11
150.1505999999999972
21
-108.2918999999999983
0
LINE
8
BLACK
6
CONTINUOUS
10
150.1505999999999972
20
-89.2419000000000011
11
131.1005999999999858
21
-89.2419000000000011
0
LINE
8
BLACK
6
CONTINUOUS
10
150.1505999999999972
20
-108.2918999999999983
11
150.1505999999999972
21
-89.2419000000000011
0
LINE
8
BLACK
6
CONTINUOUS
10
182.1005999999999858
20
-89.2419000000000011
11
182.1005999999999858
21
-108.2918999999999983
0
LINE
8
BLACK
6
CONTINUOUS
10
182.1005999999999858
20
-108.2918999999999983
11
201.1505999999999972
21
-108.2918999999999983
0
LINE
8
BLACK
6
CONTINUOUS
10
201.1505999999999972
20
-89.2419000000000011
11
182.1005999999999858
21
-89.2419000000000011
0
LINE
8
BLACK
6
CONTINUOUS
10
201.1505999999999972
20
-108.2918999999999983
11
201.1505999999999972
21
-89.2419000000000011
0
LINE
8
BLACK
6
CONTINUOUS
10
165.1005999999999858
20
-89.2419000000000011
11
165.1005999999999858
21
-108.2918999999999983
0
LINE
8
BLACK
6
CONTINUOUS
10
165.1005999999999858
20
-108.2918999999999983
11
184.1505999999999972
21
-108.2918999999999983
0
LINE
8
BLACK
6
CONTINUOUS
10
184.1505999999999972
20
-89.2419000000000011
11
165.1005999999999858
21
-89.2419000000000011
0
LINE
8
BLACK
6
CONTINUOUS
10
184.1505999999999972
20
-108.2918999999999983
11
184.1505999999999972
21
-89.2419000000000011
0
LINE
8
BLACK
6
CONTINUOUS
10
165.1005999999999858
20
-106.2419000000000011
11
165.1005999999999858
21
-125.2918999999999983
0
LINE
8
BLACK
6
CONTINUOUS
10
165.1005999999999858
20
-125.2918999999999983
11
184.1505999999999972
21
-125.2918999999999983
0
LINE
8
BLACK
6
CONTINUOUS
10
184.1505999999999972
20
-106.2419000000000011
11
165.1005999999999858
21
-106.2419000000000011
0
LINE
8
BLACK
6
CONTINUOUS
10
184.1505999999999972
20
-125.2918999999999983
11
184.1505999999999972
21
-106.2419000000000011
0
LINE
8
BLACK
6
CONTINUOUS
10
97.1006
20
-89.2419000000000011
11
97.1006
21
-108.2918999999999983
0
LINE
8
BLACK
6
CONTINUOUS
10
97.1006
20
-108.2918999999999983
11
116.1505999999999972
21
-108.2918999999999983
0
LINE
8
BLACK
6
CONTINUOUS
10
116.1505999999999972
20
-89.2419000000000011
11
97.1006
21
-89.2419000000000011
0
LINE
8
BLACK
6
CONTINUOUS
10
116.1505999999999972
20
-108.2918999999999983
11
116.1505999999999972
21
-89.2419000000000011
0
LINE
8
BLACK
6
CONTINUOUS
10
114.1006
20
-89.2419000000000011
11
114.1006
21
-108.2918999999999983
0
LINE
8
BLACK
6
CONTINUOUS
10
114.1006
20
-108.2918999999999983
11
133.1505999999999972
21
-108.2918999999999983
0
LINE
8
BLACK
6
CONTINUOUS
10
133.1505999999999972
20
-89.2419000000000011
11
114.1006
21
-89.2419000000000011
0
LINE
8
BLACK
6
CONTINUOUS
10
133.1505999999999972
20
-108.2918999999999983
11
133.1505999999999972
21
-89.2419000000000011
0
LINE
8
BLACK
6
CONTINUOUS
10
131.1005999999999858
20
-72.2419000000000011
11
131.1005999999999858
21
-91.2918999999999983
0
LINE
8
BLACK
6
CONTINUOUS
10
131.1005999999999858
20
-91.2918999999999983
11
150.1505999999999972
21
-91.2918999999999983
0
LINE
8
BLACK
6
CONTINUOUS
10
150.1505999999999972
20
-72.2419000000000011
11
131.1005999999999858
21
-72.2419000000000011
0
LINE
8
BLACK
6
CONTINUOUS
10
150.1505999999999972
20
-91.2918999999999983
11
150.1505999999999972
21
-72.2419000000000011
0
LINE
8
BLACK
6
CONTINUOUS
10
198.5
20
-51.3440000000000012
11
189.5
21
-51.3440000000000012
0
LINE
8
BLACK
6
CONTINUOUS
10
189.5
20
-51.3440000000000012
11
189.5
21
-52.8439999999999941
0
LINE
8
BLACK
6
CONTINUOUS
10
189.5
20
-52.8439999999999941
11
198.5
21
-52.8439999999999941
0
LINE
8
BLACK
6
CONTINUOUS
10
198.5
20
-52.8439999999999941
11
198.5
21
-51.3440000000000012
0
LINE
8
BLACK
6
CONTINUOUS
10
202.8899999999999864
20
-73.8439999999999941
11
185.1099999999999852
21
-73.8439999999999941
0
LINE
8
BLACK
6
CONTINUOUS
10
185.1099999999999852
20
-73.8439999999999941
11
185.1099999999999852
21
-52.8439999999999941
0
LINE
8
BLACK
6
CONTINUOUS
10
185.1099999999999852
20
-52.8439999999999941
11
202.8899999999999864
21
-52.8439999999999941
0
LINE
8
BLACK
6
CONTINUOUS
10
202.8899999999999864
20
-52.8439999999999941
11
202.8899999999999864
21
-73.8439999999999941
0
POLYLINE
8
BLACK
66
1
70
1
40
0.5765
41
0.5765
0
VERTEX
8
BLACK
10
192.4417499999999848
 20
-54.7719999999999985
42
1.0
0
VERTEX
8
BLACK
10
193.0182499999999948
 20
-54.7719999999999985
42
1.0
0
SEQEND
0
POLYLINE
8
BLACK
66
1
70
1
40
0.5765
41
0.5765
0
VERTEX
8
BLACK
10
192.4417499999999848
 20
-57.3119999999999976
42
1.0
0
VERTEX
8
BLACK
10
193.0182499999999948
 20
-57.3119999999999976
42
1.0
0
SEQEND
0
POLYLINE
8
BLACK
66
1
70
1
40
0.5765
41
0.5765
0
VERTEX
8
BLACK
10
194.9817499999999768
 20
-54.7719999999999985
42
1.0
0
VERTEX
8
BLACK
10
195.5582499999999868
 20
-54.7719999999999985
42
1.0
0
SEQEND
0
POLYLINE
8
BLACK
66
1
70
1
40
0.5765
41
0.5765
0
VERTEX
8
BLACK
10
194.9817499999999768
 20
-57.3119999999999976
42
1.0
0
VERTEX
8
BLACK
10
195.5582499999999868
 20
-57.3119999999999976
42
1.0
0
SEQEND
0
LINE
8
BLACK
6
CONTINUOUS
10
114.1006
20
-55.241899999999994
11
114.1006
21
-74.2918999999999983
0
LINE
8
BLACK
6
CONTINUOUS
10
114.1006
20
-74.2918999999999983
11
133.1505999999999972
21
-74.2918999999999983
0
LINE
8
BLACK
6
CONTINUOUS
10
133.1505999999999972
20
-55.241899999999994
11
114.1006
21
-55.241899999999994
0
LINE
8
BLACK
6
CONTINUOUS
10
133.1505999999999972
20
-74.2918999999999983
11
133.1505999999999972
21
-55.241899999999994
0
LINE
8
BLACK
6
CONTINUOUS
10
114.1006
20
-72.2419000000000011
11
114.1006
21
-91.2918999999999983
0
LINE
8
BLACK
6
CONTINUOUS
10
114.1006
20
-91.2918999999999983
11
133.1505999999999972
21
-91.2918999999999983
0
LINE
8
BLACK
6
CONTINUOUS
10
133.1505999999999972
20
-72.2419000000000011
11
114.1006
21
-72.2419000000000011
0
LINE
8
BLACK
6
CONTINUOUS
10
133.1505999999999972
20
-91.2918999999999983
11
133.1505999999999972
21
-72.2419000000000011
0
LINE
8
BLACK
6
CONTINUOUS
10
131.1005999999999858
20
-55.241899999999994
11
131.1005999999999858
21
-74.2918999999999983
0
LINE
8
BLACK
6
CONTINUOUS
10
131.1005999999999858
20
-74.2918999999999983
11
150.1505999999999972
21
-74.2918999999999983
0
LINE
8
BLACK
6
CONTINUOUS
10
150.1505999999999972
20
-55.241899999999994
11
131.1005999999999858
21
-55.241899999999994
0
LINE
8
BLACK
6
CONTINUOUS
10
150.1505999999999972
20
-74.2918999999999983
11
150.1505999999999972
21
-55.241899999999994
0
LINE
8
BLACK
6
CONTINUOUS
10
97.1006
20
-106.2419000000000011
11
97.1006
21
-125.2918999999999983
0
LINE
8
BLACK
6
CONTINUOUS
10
97.1006
20
-125.2918999999999983
11
116.1505999999999972
21
-125.2918999999999983
0
LINE
8
BLACK
6
CONTINUOUS
10
116.1505999999999972
20
-106.2419000000000011
11
97.1006
21
-106.2419000000000011
0
LINE
8
BLACK
6
CONTINUOUS
10
116.1505999999999972
20
-125.2918999999999983
11
116.1505999999999972
21
-106.2419000000000011
0
LINE
8
BLACK
6
CONTINUOUS
10
97.1006
20
-72.2419000000000011
11
97.1006
21
-91.2918999999999983
0
LINE
8
BLACK
6
CONTINUOUS
10
97.1006
20
-91.2918999999999983
11
116.1505999999999972
21
-91.2918999999999983
0
LINE
8
BLACK
6
CONTINUOUS
10
116.1505999999999972
20
-72.2419000000000011
11
97.1006
21
-72.2419000000000011
0
LINE
8
BLACK
6
CONTINUOUS
10
116.1505999999999972
20
-91.2918999999999983
11
116.1505999999999972
21
-72.2419000000000011
0
LINE
8
BLACK
6
CONTINUOUS
10
165.1005999999999858
20
-72.2419000000000011
11
165.1005999999999858
21
-91.2918999999999983
0
LINE
8
BLACK
6
CONTINUOUS
10
165.1005999999999858
20
-91.2918999999999983
11
184.1505999999999972
21
-91.2918999999999983
0
LINE
8
BLACK
6
CONTINUOUS
10
184.1505999999999972
20
-72.2419000000000011
11
165.1005999999999858
21
-72.2419000000000011
0
LINE
8
BLACK
6
CONTINUOUS
10
184.1505999999999972
20
-91.2918999999999983
11
184.1505999999999972
21
-72.2419000000000011
0
LINE
8
BLACK
6
CONTINUOUS
10
148.1005999999999858
20
-72.2419000000000011
11
148.1005999999999858
21
-91.2918999999999983
0
LINE
8
BLACK
6
CONTINUOUS
10
148.1005999999999858
20
-91.2918999999999983
11
167.1505999999999972
21
-91.2918999999999983
0
LINE
8
BLACK
6
CONTINUOUS
10
167.1505999999999972
20
-72.2419000000000011
11
148.1005999999999858
21
-72.2419000000000011
0
LINE
8
BLACK
6
CONTINUOUS
10
167.1505999999999972
20
-91.2918999999999983
11
167.1505999999999972
21
-72.2419000000000011
  0
ENDSEC
  0
EOF
